<?xml version="1.0" standalone="no"?>
<!DOCTYPE svg PUBLIC "-//W3C//DTD SVG 20010904//EN"
 "http://www.w3.org/TR/2001/REC-SVG-20010904/DTD/svg10.dtd">
<svg version="1.0" xmlns="http://www.w3.org/2000/svg"
 width="200.000000pt" height="200.000000pt" viewBox="0 0 200.000000 200.000000"
 preserveAspectRatio="xMidYMid meet">
<metadata>
Created by potrace 1.14, written by Peter Selinger 2001-2017
</metadata>
<g transform="translate(0.000000,200.000000) scale(0.100000,-0.100000)"
fill="#000000" stroke="none">
<path d="M984 1950 c-29 -11 -69 -57 -98 -112 -72 -136 -136 -266 -136 -275 0
-17 27 -20 203 -21 93 0 171 -3 174 -5 7 -7 -47 -98 -62 -103 -7 -3 -185 -6
-397 -7 l-385 -2 -37 -29 c-68 -51 -77 -88 -76 -308 1 -245 3 -227 -18 -202
-55 65 -108 46 -130 -47 -14 -61 -9 -230 9 -276 26 -68 64 -80 110 -34 l29 29
1 -51 c0 -29 0 -115 -1 -192 0 -119 3 -145 18 -175 40 -73 14 -70 653 -77 865
-9 862 -9 906 14 74 39 77 50 83 279 l5 205 19 -35 c37 -68 78 -56 102 31 18
67 13 307 -7 348 -21 44 -65 42 -96 -4 l-23 -34 -1 209 c-1 231 -2 245 -27
288 -34 60 -61 65 -310 65 -123 0 -226 2 -230 5 -6 7 9 37 63 131 32 55 33 61
18 77 -14 16 -36 18 -193 18 l-178 0 54 107 c61 119 67 141 50 165 -14 19 -63
29 -92 18z m672 -1207 l1 -513 -76 0 c-85 -1 -941 -1 -1122 0 l-116 0 0 513 0
514 656 -1 656 -1 1 -512z"/>
<path d="M673 849 c-102 -30 -133 -158 -57 -234 48 -49 108 -56 168 -21 144
84 50 302 -111 255z"/>
<path d="M1310 852 c-57 -10 -110 -76 -110 -137 0 -39 28 -92 61 -116 44 -31
91 -35 141 -10 151 73 74 293 -92 263z"/>
</g>
</svg>
