<?xml version="1.0" standalone="no"?>
<!DOCTYPE svg PUBLIC "-//W3C//DTD SVG 20010904//EN"
 "http://www.w3.org/TR/2001/REC-SVG-20010904/DTD/svg10.dtd">
<svg version="1.0" xmlns="http://www.w3.org/2000/svg"
 width="960.000000pt" height="960.000000pt" viewBox="0 0 960.000000 960.000000"
 preserveAspectRatio="xMidYMid meet">
<metadata>
Created by potrace 1.14, written by Peter Selinger 2001-2017
</metadata>
<g transform="translate(0.000000,960.000000) scale(0.100000,-0.100000)"
fill="#000000" stroke="none">
<path d="M0 8723 c0 -504 4 -913 10 -962 5 -47 14 -131 19 -186 6 -55 13 -111
16 -125 8 -37 46 -313 55 -405 5 -44 13 -109 19 -145 6 -36 15 -112 21 -169 6
-57 14 -111 19 -120 5 -9 12 -47 15 -86 4 -38 9 -81 12 -95 3 -14 9 -68 14
-120 5 -52 14 -122 20 -155 21 -114 23 -130 22 -159 -1 -16 3 -35 8 -41 9 -11
16 -126 9 -155 -7 -27 -22 -30 -141 -30 l-118 0 0 -2112 0 -2112 31 30 c17 16
59 56 94 89 34 33 73 68 86 78 13 10 37 28 53 40 16 12 48 40 72 62 57 53 87
79 140 117 24 17 44 35 44 40 0 5 5 6 10 3 6 -3 10 -2 10 2 0 5 15 17 32 28
18 10 38 23 43 27 6 4 36 28 67 53 31 25 61 45 67 45 6 0 11 4 11 10 0 5 15
17 33 26 17 9 34 20 37 23 10 13 110 81 119 81 5 0 11 6 14 14 3 7 28 28 56
46 28 19 51 36 51 40 0 4 24 26 53 49 87 71 237 221 237 237 0 4 56 62 124
128 104 101 196 210 196 231 0 2 15 28 34 57 18 29 36 63 40 74 4 12 15 29 26
39 11 10 20 24 20 30 0 7 15 20 33 28 26 13 47 14 117 6 47 -5 137 -13 200
-19 63 -5 192 -16 285 -25 94 -8 208 -18 255 -21 47 -3 101 -10 120 -15 19 -5
54 -9 77 -9 23 0 45 -4 48 -10 4 -6 -53 -10 -162 -11 l-168 -2 90 -12 c50 -6
97 -10 106 -7 9 2 20 -1 23 -7 4 -6 28 -11 53 -11 60 0 51 -9 -12 -12 l-49 -3
-1 -45 c-2 -47 -12 -80 -25 -80 -16 0 -51 -72 -41 -84 6 -8 4 -28 -7 -61 -13
-39 -18 -45 -20 -27 -5 30 -28 22 -25 -9 4 -49 -6 -65 -47 -79 -39 -13 -40
-14 -26 -36 14 -20 13 -24 -4 -39 -12 -11 -27 -15 -42 -10 -19 5 -20 4 -8 -5
11 -9 12 -13 2 -17 -6 -2 -12 -16 -12 -29 0 -14 -7 -27 -15 -30 -8 -4 -15 -14
-15 -24 0 -11 -5 -22 -10 -25 -6 -3 -10 1 -10 10 0 9 -5 13 -10 10 -6 -3 -10
-18 -10 -33 0 -15 -4 -34 -10 -42 -8 -12 -10 -12 -16 3 -9 24 -34 21 -34 -3 0
-11 -7 -20 -15 -20 -8 0 -15 -9 -15 -20 0 -11 7 -20 15 -20 8 0 15 6 15 13 0
8 3 8 9 -2 13 -21 -1 -42 -48 -71 -42 -26 -52 -47 -26 -56 8 -4 15 -14 15 -23
0 -19 -53 -47 -58 -31 -9 27 -29 4 -42 -47 -14 -55 -17 -59 -53 -67 -36 -9
-37 -11 -31 -43 5 -29 3 -34 -21 -43 -14 -5 -41 -10 -60 -10 -19 0 -35 -6 -38
-14 -4 -11 -1 -13 10 -9 13 5 15 2 10 -11 -4 -10 -8 -34 -8 -54 -1 -24 -3 -29
-6 -14 -6 30 -20 28 -38 -8 -14 -28 -26 -35 -49 -31 -5 1 -6 -9 -4 -23 3 -15
0 -27 -8 -30 -8 -3 -13 -16 -11 -28 2 -18 -4 -24 -25 -26 -21 -3 -28 1 -28 15
-1 17 -1 17 -12 -1 -8 -15 -8 -21 0 -24 7 -2 12 -16 11 -30 l-1 -27 -7 25
c-12 42 -36 36 -51 -12 -9 -27 -15 -37 -18 -25 -2 9 -7 17 -11 17 -10 0 -51
-57 -51 -71 0 -6 -8 -19 -17 -28 -10 -9 -18 -23 -18 -31 0 -9 -15 -19 -37 -24
-21 -5 -38 -15 -38 -23 0 -7 -5 -13 -11 -13 -6 0 -9 9 -6 20 3 12 1 18 -5 14
-5 -3 -8 -15 -5 -25 4 -14 0 -19 -14 -19 -10 0 -19 -4 -19 -10 0 -5 9 -10 20
-10 11 0 20 -7 20 -15 0 -19 -5 -19 -36 1 -22 15 -24 15 -18 0 3 -9 10 -16 15
-16 5 0 9 -9 9 -19 0 -14 -13 -24 -42 -35 -42 -16 -42 -16 -8 -11 22 3 30 2
21 -4 -11 -7 -11 -9 0 -14 8 -4 2 -4 -13 -1 -37 8 -54 -4 -31 -23 17 -13 17
-13 -3 -4 -12 6 -24 7 -28 3 -4 -3 -4 1 0 11 3 10 1 17 -5 17 -6 0 -11 -13
-11 -30 0 -32 12 -37 52 -21 13 5 36 12 51 16 17 3 25 10 21 17 -4 7 -3 8 5 4
6 -4 28 -2 49 5 62 21 77 18 77 -13 1 -21 -6 -30 -30 -38 -16 -7 -38 -16 -47
-21 -10 -5 -25 -9 -33 -9 -8 0 -23 -4 -33 -9 -9 -6 -33 -12 -53 -16 -63 -10
-77 -31 -85 -135 -2 -25 -1 -39 2 -32 3 6 12 12 20 12 9 0 12 5 8 12 -5 7 -3
8 5 4 7 -5 20 -1 29 7 31 28 138 26 169 -2 12 -11 24 -17 29 -13 4 4 4 -1 1
-10 -4 -12 -2 -15 9 -11 13 5 12 8 -3 26 -17 20 -17 20 2 13 28 -10 147 15
141 29 -2 7 4 24 14 40 11 17 19 22 22 14 7 -20 30 1 25 22 -3 11 2 24 13 32
10 7 19 21 21 32 3 12 18 24 39 31 24 8 37 20 44 41 6 17 16 28 22 26 6 -2 22
1 35 7 23 10 22 10 -6 5 -27 -5 -28 -4 -12 9 12 9 14 16 7 21 -5 3 -8 11 -4
16 3 5 10 7 15 4 5 -4 9 3 9 14 0 12 7 21 15 21 8 0 15 4 15 9 0 6 -24 11 -52
13 -45 3 -53 6 -53 23 0 15 8 21 30 23 16 2 33 9 37 15 6 8 10 9 16 2 4 -6 20
-8 37 -4 17 4 26 7 20 8 -6 1 -10 69 -10 181 0 166 1 180 17 180 10 0 18 -7
18 -15 0 -8 7 -15 15 -15 14 0 39 66 30 80 -7 11 22 33 37 28 15 -5 53 32 53
52 0 8 10 19 23 25 12 5 22 18 22 27 0 10 4 18 9 18 5 0 23 12 40 26 l31 26 1
-24 c1 -25 4 -19 13 24 5 21 12 27 29 25 16 -1 21 3 19 16 -2 10 3 17 13 17 9
0 28 14 42 30 13 17 33 30 43 30 11 0 20 10 24 25 4 15 13 25 25 25 10 0 27
12 37 28 24 36 74 86 74 73 0 -6 7 -8 15 -5 8 4 15 12 15 20 0 13 35 38 55 40
28 1 55 17 60 35 4 10 10 17 14 15 4 -3 23 5 42 16 19 12 43 22 53 23 10 1 24
9 31 18 7 10 17 17 24 17 6 0 11 9 11 20 0 11 6 20 14 20 17 0 32 39 19 49 -4
4 -24 14 -43 21 -42 16 -80 52 -62 58 7 2 12 11 12 19 0 9 -6 13 -14 10 -17
-7 -26 21 -26 80 0 29 -5 45 -17 52 -10 6 -13 11 -6 11 6 0 19 7 28 16 13 13
16 14 15 3 -4 -29 0 -49 11 -49 7 0 8 14 4 41 -7 38 -5 41 24 52 30 11 42 27
20 27 -5 0 -7 5 -4 11 4 6 13 8 21 5 7 -3 19 0 26 7 7 7 29 20 48 29 29 14 31
17 13 17 -13 1 -23 5 -23 10 0 13 168 23 274 15 116 -8 149 2 173 55 10 20 20
50 23 66 5 26 6 27 11 9 4 -12 0 -38 -7 -59 -18 -52 -5 -72 49 -79 91 -11 305
-26 368 -26 81 0 98 17 125 125 3 11 10 29 16 41 16 34 6 88 -17 92 -73 11
-87 39 -39 75 24 18 24 18 24 -6 0 -14 7 -28 17 -31 15 -6 15 -8 3 -16 -11 -7
-8 -10 13 -10 16 0 26 4 23 9 -3 4 6 6 19 3 14 -2 22 -8 19 -13 -3 -5 0 -9 6
-9 7 0 5 -7 -4 -16 -9 -8 -14 -19 -11 -24 3 -4 -2 -10 -10 -14 -8 -3 -15 -12
-15 -19 0 -8 -9 -43 -20 -77 -27 -86 -26 -105 8 -118 40 -16 325 -26 350 -13
11 6 24 25 27 43 4 18 11 38 16 44 5 7 12 41 16 76 4 51 2 68 -9 79 -14 12
-12 15 11 25 29 12 101 7 101 -7 0 -5 -4 -9 -8 -9 -26 0 -89 -200 -78 -245 5
-21 12 -25 45 -25 21 0 60 -4 87 -9 44 -8 182 -16 226 -12 20 1 49 84 65 183
8 54 -16 88 -62 86 -49 -2 -60 12 -35 44 11 14 25 49 32 77 6 27 15 48 20 45
13 -9 9 49 -6 79 -13 23 -13 27 0 27 8 0 14 5 14 10 0 15 36 12 50 -5 8 -10 9
-19 3 -28 -28 -35 -64 -207 -44 -207 6 0 10 -3 10 -7 -1 -5 -1 -15 0 -23 1
-11 4 -11 13 -2 15 15 38 15 74 2 l27 -11 -21 -20 c-12 -11 -24 -30 -26 -42
-31 -161 -35 -192 -23 -203 19 -17 237 -40 338 -35 19 1 30 9 39 30 6 17 9 35
4 42 -4 8 -3 10 4 5 9 -5 12 13 13 66 2 106 -3 120 -47 131 -30 8 104 6 171
-3 l60 -7 -52 -2 -52 -1 -14 -47 c-8 -27 -20 -81 -27 -120 -18 -100 -9 -109
108 -117 48 -3 125 -8 172 -12 l85 -6 18 31 c10 17 17 36 16 43 -2 7 1 42 5
77 7 56 6 66 -13 92 -26 35 -26 37 2 67 32 34 50 164 29 209 -14 29 -13 34 7
73 17 32 22 59 21 114 0 130 0 139 9 150 13 17 20 105 10 138 -5 20 -2 48 11
91 12 39 19 94 19 148 0 48 1 91 2 95 4 25 -4 36 -33 49 -30 12 -217 27 -496
40 -57 2 -107 7 -111 9 -4 3 -61 8 -127 11 -65 3 -139 10 -164 15 -25 5 -76
12 -115 14 -38 2 -104 9 -145 15 -112 16 -311 31 -430 32 -58 0 -124 5 -147
11 -38 9 -49 7 -95 -15 -29 -14 -73 -31 -98 -37 -76 -19 -80 -21 -80 -35 0
-19 -32 -27 -62 -16 -25 9 -118 -9 -142 -27 -6 -5 -29 -12 -51 -15 -22 -3 -51
-9 -65 -12 -108 -28 -290 -39 -410 -24 -50 6 -76 6 -78 -1 -2 -5 -8 -10 -13
-10 -5 0 -7 37 -5 83 7 145 -14 328 -45 389 -5 10 -9 25 -9 33 0 24 -24 95
-32 95 -5 0 -8 11 -8 24 0 14 -4 27 -9 30 -4 3 -26 40 -47 83 -61 123 -151
246 -285 389 -16 17 -29 34 -29 37 0 10 -62 67 -149 137 -45 35 -81 68 -81 72
0 5 -5 8 -10 8 -9 0 -76 48 -128 91 -7 6 -23 16 -35 22 -12 7 -36 21 -52 33
-17 12 -42 24 -57 28 -32 7 -39 45 -13 66 8 7 15 17 15 23 0 13 121 132 175
172 22 17 53 41 68 55 16 14 32 25 36 25 4 0 15 8 25 18 10 9 34 30 54 45 49
37 132 123 132 137 0 7 17 20 38 31 20 10 39 22 40 27 2 4 10 7 18 7 8 0 17 7
20 15 4 8 13 15 21 15 8 0 31 13 51 29 20 16 59 36 86 45 55 18 186 22 186 6
0 -5 7 -10 15 -10 9 0 18 -7 21 -15 4 -8 12 -15 20 -15 7 0 31 -9 53 -21 50
-26 184 -31 249 -10 34 12 50 12 85 2 54 -16 107 -42 128 -62 37 -37 132 -38
287 -4 36 8 105 -9 133 -32 8 -7 21 -13 27 -13 22 0 72 -65 72 -93 0 -31 30
-97 54 -116 9 -8 16 -17 16 -22 0 -5 16 -24 35 -43 25 -25 47 -37 79 -41 49
-8 116 9 116 28 0 14 55 52 90 62 14 4 41 19 60 34 66 49 115 81 128 81 6 0
12 4 12 10 0 5 24 22 53 36 28 15 72 43 97 63 24 20 45 34 45 31 0 -3 14 10
31 28 17 17 35 32 40 32 5 0 31 11 58 25 27 14 60 25 73 25 13 0 23 4 23 10 0
24 88 -3 130 -40 23 -20 25 -29 25 -99 -1 -69 -4 -81 -25 -103 -14 -14 -41
-43 -61 -64 -21 -21 -69 -70 -109 -109 -40 -38 -86 -90 -102 -115 -31 -46 -39
-53 -85 -86 -14 -11 -39 -31 -55 -46 -16 -16 -32 -28 -37 -28 -15 0 -191 -179
-191 -194 0 -8 -8 -17 -17 -21 -10 -3 -35 -27 -55 -53 -21 -26 -89 -100 -151
-165 -84 -86 -118 -129 -128 -160 -7 -23 -16 -44 -19 -47 -5 -5 -18 -27 -58
-100 -11 -19 -32 -48 -46 -63 -15 -16 -24 -32 -21 -37 3 -5 -2 -15 -10 -23
-21 -22 -20 -23 32 -26 25 -1 50 -3 56 -4 7 -2 16 9 34 42 1 2 9 -4 18 -13 9
-9 21 -13 27 -10 5 4 21 1 34 -6 17 -10 27 -10 37 -2 8 7 17 9 20 5 10 -9 9
-65 0 -60 -5 3 -9 -11 -11 -30 -1 -19 -9 -44 -17 -56 -21 -30 -20 -34 25 -57
28 -14 59 -20 110 -20 38 0 70 -4 70 -10 0 -5 23 -12 50 -16 28 -4 53 -11 56
-15 3 -5 22 -9 42 -9 28 0 33 -3 22 -10 -12 -8 -10 -10 8 -10 13 0 20 4 17 10
-3 6 -2 10 4 10 5 0 13 -4 16 -10 3 -6 18 -10 33 -9 l27 1 -25 7 c-36 11 194
18 372 13 81 -3 145 -9 142 -13 -3 -5 2 -9 10 -9 9 0 16 5 16 10 0 6 7 10 15
10 8 0 15 -4 15 -9 0 -4 89 -11 198 -15 108 -4 232 -11 276 -17 43 -6 86 -7
95 -3 30 13 55 15 156 12 55 -1 149 -2 209 -2 l109 0 33 40 c19 21 33 45 31
53 -1 7 9 17 22 22 22 9 23 7 18 -19 -3 -15 -2 -34 3 -42 13 -21 70 41 71 77
0 15 3 21 6 13 9 -29 26 -60 33 -60 12 0 7 35 -8 52 -15 18 -10 48 8 48 6 0 9
-4 5 -9 -13 -21 19 -23 36 -2 14 17 24 21 41 16 34 -11 48 -25 48 -49 0 -19 5
-22 28 -18 17 2 33 -2 41 -12 10 -12 8 -19 -13 -37 -14 -13 -26 -30 -26 -40 0
-9 -7 -19 -15 -23 -8 -3 -15 -12 -15 -21 0 -22 -27 -19 -40 5 -9 16 -8 20 5
20 9 0 15 9 15 25 0 16 6 25 15 25 8 0 15 7 15 15 0 19 -19 19 -26 0 -4 -8
-14 -15 -23 -15 -9 0 -27 -7 -40 -17 -20 -14 -22 -18 -9 -27 21 -16 31 -65 17
-83 -11 -12 -9 -13 13 -8 15 4 29 2 32 -4 9 -15 -36 -91 -54 -91 -11 -1 -10
-4 5 -16 19 -14 63 -12 75 5 3 4 13 10 23 14 9 4 22 18 27 31 6 17 19 27 43
31 33 6 97 56 97 76 0 15 -20 51 -40 74 -10 11 -21 31 -25 45 -4 17 -3 21 3
12 24 -35 30 73 7 118 -8 16 -12 35 -9 43 3 8 -1 17 -9 20 -19 7 -20 72 -1 88
8 6 14 18 14 27 0 20 49 64 65 59 6 -3 23 8 36 24 13 16 32 29 41 29 10 0 18
4 18 9 0 12 -29 23 -41 15 -18 -11 -21 26 -3 43 17 17 17 17 11 1 -5 -13 -1
-18 12 -18 11 0 26 -2 33 -5 8 -3 25 4 38 15 13 11 30 18 38 15 7 -3 19 -5 25
-5 7 0 -6 -16 -28 -35 -22 -19 -48 -35 -57 -35 -10 0 -18 -5 -18 -11 0 -6 -22
-33 -50 -59 -45 -43 -64 -80 -41 -80 5 0 46 25 91 55 45 30 86 53 91 49 5 -3
9 1 9 9 0 7 11 24 25 37 21 20 25 21 25 6 0 -9 -7 -19 -15 -22 -22 -9 -18 -31
7 -37 29 -8 30 -7 30 47 0 50 9 58 26 24 10 -21 11 -21 12 12 1 19 4 29 7 23
8 -20 26 -14 51 17 21 27 21 60 1 60 -5 0 -9 9 -9 20 0 11 4 20 9 20 5 0 15
17 21 38 7 20 17 42 23 47 7 7 8 4 3 -10 -9 -24 -9 -23 -7 -53 1 -14 6 -22 14
-19 8 2 12 22 11 57 -1 33 2 47 7 39 5 -8 9 -10 9 -5 0 5 7 2 16 -5 13 -10 15
-24 10 -63 -3 -27 -11 -54 -17 -60 -9 -8 -10 -7 -4 3 5 9 4 12 -3 7 -7 -4 -12
-15 -12 -24 0 -22 -57 -112 -70 -112 -6 0 -10 -4 -10 -9 0 -14 -54 -93 -79
-115 -25 -23 -27 -36 -6 -36 23 0 115 103 151 168 35 64 54 77 54 35 l0 -28
20 25 c12 14 19 35 17 48 -3 12 0 25 4 28 5 3 9 -11 9 -30 0 -27 3 -34 15 -30
8 4 17 -1 21 -10 3 -9 12 -16 19 -16 7 0 16 -6 18 -12 4 -10 6 -10 6 0 1 15
31 16 31 1 0 -7 10 -9 24 -7 19 4 23 1 19 -11 -4 -14 -3 -14 6 -1 14 19 14 57
1 65 -5 3 -10 19 -10 35 0 38 -20 50 -21 13 0 -24 -1 -25 -8 -8 l-8 20 -6 -20
c-3 -11 -3 7 -1 40 l3 60 -9 -48 c-11 -64 -17 -67 -35 -24 -17 41 -21 112 -5
87 8 -13 10 -13 10 1 0 27 28 31 33 6 l4 -22 2 23 c1 25 4 26 32 12 10 -6 20
-21 20 -33 1 -17 3 -16 9 8 5 20 8 24 9 10 1 -15 4 -16 10 -7 6 10 11 9 22 -4
9 -11 9 -15 2 -10 -9 5 -11 2 -7 -8 3 -8 12 -12 20 -9 8 3 14 -1 14 -11 0 -9
7 -16 16 -16 15 0 15 2 1 23 -14 21 -13 23 7 23 11 0 26 -7 33 -15 11 -14 12
-14 13 -1 1 8 9 -7 20 -33 10 -26 17 -62 15 -79 -5 -39 5 -30 15 14 9 35 5
-85 -5 -177 -4 -36 -3 -44 4 -30 6 12 10 15 10 6 1 -22 12 -6 21 31 7 30 8 29
9 -17 1 -28 -4 -56 -9 -61 -8 -8 -7 -19 1 -37 9 -19 9 -34 1 -54 -21 -54 -24
-109 -8 -122 16 -14 19 -5 36 111 7 48 8 45 8 -37 0 -52 -3 -82 -7 -70 -7 17
-8 16 -15 -9 -4 -18 -12 -26 -21 -22 -7 2 -16 0 -19 -7 -3 -7 -3 -2 0 11 3 12
1 22 -5 22 -6 0 -11 -8 -11 -18 0 -10 -5 -23 -12 -30 -9 -9 -9 -15 0 -24 9 -9
12 -8 12 7 0 10 3 15 6 12 9 -9 10 -96 2 -90 -5 2 -8 11 -8 19 0 8 -3 14 -8
14 -11 0 -29 -51 -35 -100 l-5 -45 14 48 c18 55 44 65 44 15 0 -32 0 -32 16
-10 8 12 20 20 25 17 5 -4 9 7 9 24 0 16 6 34 14 38 7 4 16 15 19 23 4 12 6
11 6 -3 1 -10 -6 -33 -13 -52 -10 -22 -11 -35 -4 -35 5 0 8 -7 4 -15 -3 -8 -1
-25 4 -37 8 -18 10 -12 7 29 -2 28 0 58 4 65 7 10 9 10 10 -2 3 -26 6 -54 7
-80 2 -20 4 -22 12 -10 6 10 10 11 10 3 0 -7 4 -13 9 -13 5 0 8 8 7 18 -1 12
5 16 22 15 12 -2 22 3 22 10 0 8 3 7 10 -3 8 -12 10 -12 16 3 3 9 11 17 16 17
6 0 7 -8 4 -17 -6 -15 -4 -14 14 2 14 13 19 14 15 4 -4 -10 2 -14 20 -14 14 0
23 5 21 11 -5 13 29 44 48 44 8 0 17 -6 19 -12 4 -10 6 -10 6 0 1 19 41 15 41
-5 0 -14 2 -15 9 -4 7 11 9 11 14 0 3 -8 6 -5 6 8 1 12 5 24 10 27 5 4 7 -4 5
-16 l-5 -23 12 22 c11 20 13 21 35 6 13 -8 24 -11 24 -7 0 5 5 2 10 -6 7 -11
10 -6 11 20 0 19 3 29 6 23 11 -29 20 -10 13 30 -5 23 -7 44 -4 46 5 5 11 -14
20 -64 l7 -40 7 30 c4 17 8 24 9 18 1 -18 19 -16 38 2 10 10 12 20 6 28 -6 8
-5 21 3 37 12 22 14 23 15 5 0 -11 3 -15 5 -8 9 21 34 2 35 -26 0 -14 3 -20 6
-13 2 6 13 12 23 12 10 0 21 7 24 16 3 8 11 12 17 8 9 -5 10 7 7 44 -3 28 -1
49 4 46 4 -3 8 -13 8 -24 0 -17 18 -30 42 -30 6 0 8 15 4 37 l-5 38 19 -40
c11 -22 19 -31 17 -19 -3 17 1 20 28 20 23 0 31 -4 28 -13 -3 -8 3 -13 16 -13
14 0 21 6 21 20 0 28 -3 34 -19 37 -7 1 -19 7 -25 13 -8 9 -6 11 12 5 13 -4
22 -2 22 4 0 6 5 11 11 11 5 0 7 -5 3 -12 -5 -8 -2 -9 10 -5 10 4 20 7 22 7 2
0 4 7 4 16 0 9 5 12 12 8 16 -10 48 -13 48 -4 0 12 132 41 144 31 20 -16 76
-19 76 -4 0 7 9 13 21 13 11 0 17 5 14 10 -3 6 1 10 9 10 9 0 16 -4 16 -9 0
-11 83 -32 90 -23 3 4 30 9 59 10 30 2 59 5 63 8 16 10 8 24 -14 25 -14 0 -17
2 -8 6 8 2 26 10 39 16 19 9 25 9 28 0 3 -7 9 -13 14 -13 5 0 9 89 9 210 0
209 0 210 -22 210 l-22 0 22 20 c30 28 30 78 0 85 -13 3 -34 4 -47 3 -13 -2
-26 3 -28 10 -3 7 3 12 14 12 10 0 25 5 33 11 12 9 11 10 -6 6 -20 -4 -22 -1
-20 34 1 30 5 39 19 39 9 0 17 5 17 11 0 7 -10 9 -25 7 -17 -4 -25 -1 -25 8 0
8 3 13 8 13 22 -4 23 3 2 21 -24 21 -50 27 -50 11 0 -4 -16 -3 -35 3 -19 6
-35 17 -35 23 0 11 -19 18 -42 14 -4 0 -5 6 -2 14 8 19 43 30 57 16 6 -6 26
-11 44 -11 23 0 33 -5 33 -15 0 -8 4 -15 10 -15 5 0 7 7 3 16 -5 13 -2 15 18
9 33 -10 36 -15 19 -25 -22 -14 -5 -23 29 -15 28 6 31 10 31 45 0 49 -18 65
-49 44 -28 -20 -38 -11 -22 20 15 27 8 46 -16 46 -9 0 -13 3 -10 7 4 3 -5 12
-20 20 -18 9 -30 10 -37 3 -5 -5 -18 -10 -28 -10 -10 0 -21 -7 -24 -15 -4 -8
-14 -15 -23 -15 -13 0 -13 2 -2 9 8 5 9 11 3 15 -6 3 -13 -3 -17 -14 -7 -23
-18 -25 -34 -6 -9 10 -21 12 -48 6 -26 -6 -42 -5 -56 5 -15 11 -24 11 -38 2
-15 -9 -22 -8 -37 8 -23 25 -35 55 -21 55 6 0 8 4 4 10 -3 5 7 16 22 24 22 12
24 15 9 16 -11 0 -16 5 -13 14 3 8 0 20 -8 26 -10 8 -14 8 -17 -1 -6 -19 -48
0 -48 22 0 15 -7 19 -33 19 -41 0 -97 26 -97 46 0 8 -8 14 -18 14 -11 0 -29 9
-42 20 -25 22 -45 26 -55 10 -10 -17 -37 -11 -42 8 -6 23 -60 57 -65 41 -7
-22 -216 38 -210 60 1 6 -2 11 -8 11 -5 0 -10 7 -10 15 0 8 -5 15 -11 15 -6 0
-8 -9 -4 -20 4 -14 2 -20 -8 -20 -8 0 -14 11 -14 29 0 21 6 31 21 35 35 9 54
7 70 -10 9 -8 16 -11 16 -5 0 7 22 11 58 10 31 -1 62 0 67 1 27 6 56 -1 53
-12 -3 -7 -10 -14 -16 -14 -7 -1 -16 -2 -22 -3 -5 0 -10 -8 -10 -17 0 -14 8
-16 41 -11 22 3 48 12 57 20 24 21 92 30 92 12 0 -8 16 -16 39 -20 31 -5 42
-13 52 -37 10 -24 17 -29 37 -25 14 3 38 0 54 -5 19 -7 32 -7 41 1 10 8 17 3
31 -19 18 -31 31 -36 54 -21 10 6 6 16 -18 40 -17 17 -35 31 -40 31 -5 0 -15
8 -22 18 -7 10 -25 22 -40 26 -16 3 -27 11 -25 17 1 7 -7 13 -18 15 -11 1 -60
17 -109 34 -64 22 -92 28 -101 20 -10 -8 -14 -7 -17 2 -3 8 -25 13 -64 14 -32
0 -75 4 -94 9 -38 8 -91 15 -127 15 -13 0 -51 -1 -85 -1 -121 -1 -163 16 -153
63 6 24 3 28 -14 28 -13 0 -21 -7 -21 -17 -1 -16 -2 -16 -15 1 -13 17 -15 18
-15 3 0 -23 -32 -22 -51 1 -15 17 -15 20 0 30 14 9 12 11 -9 11 -20 1 -28 -6
-37 -29 -12 -31 -33 -41 -33 -16 0 8 -8 13 -18 11 -9 -1 -11 0 -4 2 6 3 12 13
12 24 0 11 16 36 35 56 33 34 36 35 65 23 16 -7 43 -10 60 -7 23 5 30 2 35
-14 5 -15 14 -19 39 -17 17 1 37 -1 43 -5 20 -12 82 25 83 50 0 12 -4 25 -10
28 -15 9 -12 25 4 25 8 0 16 6 19 13 5 16 37 -9 37 -30 0 -8 7 -13 17 -11 10
2 17 11 17 21 -1 9 5 17 13 17 13 0 13 3 3 15 -7 9 -21 13 -31 10 -11 -4 -19
-2 -19 5 0 6 -4 8 -10 5 -5 -3 -18 -1 -29 4 -14 8 -20 7 -24 -3 -5 -11 -12
-12 -39 -3 -18 7 -44 20 -58 31 -15 11 -18 16 -7 13 24 -9 21 8 -5 32 -20 19
-20 23 -8 61 13 38 32 51 45 30 11 -18 27 -11 22 10 -3 13 0 20 9 20 8 0 14
10 14 25 0 14 -5 25 -10 25 -15 0 -53 -23 -66 -39 -15 -19 -44 -7 -44 18 0 26
-17 35 -28 15 -5 -9 -13 -14 -18 -12 -5 1 -15 -10 -22 -25 -10 -20 -17 -26
-24 -19 -12 12 -38 -8 -38 -27 0 -6 -9 -15 -21 -21 -11 -7 -18 -14 -15 -17 3
-4 0 -13 -8 -22 -19 -22 -56 -126 -56 -159 -1 -31 -24 -67 -38 -58 -5 3 -21
-3 -35 -14 -15 -12 -32 -17 -42 -14 -9 4 -20 3 -24 -2 -14 -20 -70 -44 -76
-33 -5 7 -21 8 -44 4 -37 -6 -93 -13 -123 -14 -29 -1 -20 -34 15 -58 18 -13
40 -23 48 -23 12 0 12 -2 0 -9 -7 -5 -10 -14 -7 -20 9 -13 16 -14 36 -1 13 9
13 11 0 21 -13 9 -13 10 0 6 8 -2 24 6 36 18 21 23 79 37 113 28 28 -7 28 -43
1 -43 -11 0 -20 -5 -20 -10 0 -6 11 -8 26 -4 19 5 32 0 54 -21 34 -33 30 -49
-11 -40 -25 6 -29 4 -29 -14 0 -17 -6 -21 -29 -21 -17 0 -32 4 -35 9 -3 4 -28
7 -56 6 -41 -2 -54 -7 -71 -29 -14 -17 -25 -24 -33 -18 -6 5 -38 8 -71 6 -72
-3 -84 8 -77 77 3 29 0 49 -5 49 -6 0 -13 -23 -15 -51 -5 -51 -18 -69 -50 -69
-21 0 -33 37 -18 55 10 12 10 18 0 30 -16 19 -29 4 -30 -35 l-1 -25 -15 28
c-8 15 -17 27 -20 27 -17 0 -71 -33 -79 -48 -37 -68 -39 -74 -29 -90 16 -24
33 -26 27 -3 -3 12 -1 21 6 21 6 0 11 -7 11 -16 0 -9 19 -36 42 -60 31 -32 53
-46 80 -50 21 -4 43 -13 49 -20 6 -8 18 -14 25 -14 8 0 22 -4 32 -9 9 -5 30
-14 45 -20 21 -8 27 -16 22 -30 -8 -27 41 -64 78 -58 22 3 32 -2 48 -24 21
-30 24 -50 9 -65 -7 -7 -4 -18 10 -34 24 -28 25 -34 4 -54 -21 -22 -42 -20
-62 4 -16 18 -20 19 -56 6 -21 -7 -41 -18 -45 -23 -3 -5 -16 -12 -28 -15 -19
-5 -23 -2 -23 17 0 13 -7 25 -15 29 -8 3 -15 13 -15 23 0 15 -2 16 -10 3 -5
-8 -10 -28 -10 -44 0 -24 -2 -27 -15 -16 -8 7 -15 23 -15 36 0 13 -8 28 -19
33 -15 8 -20 6 -29 -14 -7 -14 -16 -25 -22 -25 -14 0 -12 13 5 36 19 26 19 34
-4 34 -15 0 -19 -7 -18 -35 1 -35 -8 -54 -19 -42 -4 4 -2 12 4 20 7 7 7 18 2
27 -7 11 -14 12 -34 2 -14 -6 -26 -18 -26 -27 0 -8 -6 -15 -12 -16 -14 0 -78
-91 -78 -109 0 -7 -6 -8 -19 -1 -22 12 -45 -8 -39 -35 3 -17 4 -17 20 0 17 17
18 16 18 -7 0 -16 -7 -26 -19 -30 -14 -3 -18 -11 -14 -26 3 -12 -1 -29 -8 -38
-8 -9 -14 -38 -14 -64 l0 -47 17 26 18 27 0 -27 c0 -16 9 -37 21 -49 20 -20
19 -59 -2 -59 -5 0 -9 -6 -9 -12 0 -18 -58 -61 -103 -76 -33 -12 -41 -11 -66
5 -79 50 -111 74 -111 82 0 12 30 70 40 76 4 3 6 14 3 26 -4 14 1 25 16 35 21
15 29 44 11 44 -5 0 -14 -9 -20 -21 -7 -11 -14 -18 -18 -15 -13 14 -11 48 4
71 9 14 12 25 6 25 -6 0 -14 -4 -17 -10 -10 -16 -42 -12 -49 6 -4 11 -13 14
-30 10 -25 -6 -44 8 -26 19 26 16 6 25 -45 19 -46 -6 -55 -4 -55 9 0 8 -7 18
-16 21 -13 5 -15 2 -11 -14 3 -13 0 -20 -9 -20 -7 0 -16 11 -20 25 -7 27 -12
29 -33 16 -17 -11 -7 -41 14 -41 8 0 15 -9 15 -20 0 -18 4 -20 35 -14 31 5 35
4 35 -15 0 -14 -6 -21 -19 -21 -25 0 -36 -16 -15 -24 10 -4 13 -13 9 -27 -10
-31 11 -39 52 -22 20 8 38 12 41 8 8 -8 -30 -34 -50 -35 -22 0 -23 -16 -3 -36
8 -9 15 -20 15 -25 0 -16 -19 -10 -32 11 -16 25 -35 25 -56 1 -15 -18 -46 -25
-94 -22 -28 2 -21 15 14 29 l32 12 -22 23 c-24 25 -30 82 -9 90 10 4 10 7 0
18 -7 7 -13 19 -13 26 0 12 -36 71 -51 83 -3 3 -14 19 -23 37 -9 18 -29 52
-46 76 -16 25 -30 49 -30 54 0 6 -9 18 -20 28 -11 10 -20 24 -20 32 0 7 -4 13
-10 13 -34 0 -63 82 -36 102 6 4 5 12 -2 20 -15 18 -5 29 48 54 63 31 143 54
182 54 32 0 113 -24 133 -39 5 -5 21 -11 35 -15 114 -33 123 -29 144 63 9 38
16 101 16 138 0 37 5 102 10 143 6 41 10 121 11 178 0 56 4 102 7 102 4 0 8 8
8 18 1 36 16 228 20 257 9 60 14 114 29 290 8 99 22 236 30 305 8 69 15 159
15 200 1 46 4 67 9 55 4 -11 11 56 15 155 4 96 11 177 16 180 5 3 11 75 14
160 3 85 10 200 15 255 5 55 14 156 20 225 6 69 15 141 21 160 5 19 10 51 10
72 0 47 16 88 33 88 8 0 22 -9 32 -20 10 -11 26 -20 34 -18 9 1 30 -2 46 -6
44 -12 192 -37 253 -43 28 -3 52 -8 52 -13 0 -4 71 -8 157 -8 198 -1 231 -6
239 -37 3 -13 4 -28 1 -32 -3 -5 -2 -15 4 -23 5 -8 9 -10 9 -5 0 7 30 10 80 9
44 -2 78 1 75 6 -2 4 5 10 16 13 15 4 19 2 15 -9 -3 -8 1 -14 8 -14 8 0 16 5
18 12 3 9 6 9 12 0 4 -7 2 -12 -3 -12 -6 0 -11 -4 -11 -9 0 -4 41 -11 90 -14
50 -4 109 -11 133 -17 23 -5 90 -11 150 -13 59 -2 110 -7 114 -10 3 -4 39 -7
80 -7 40 0 73 -4 73 -9 0 -4 44 -11 97 -15 53 -4 102 -10 107 -15 6 -4 22 -8
36 -8 90 -4 310 -26 336 -34 17 -5 56 -9 87 -9 l57 0 0 44 0 44 -47 6 c-27 3
-122 10 -212 15 -90 6 -186 13 -215 17 -82 10 -237 8 -245 -4 -4 -7 -12 -8
-21 -2 -8 6 -31 10 -51 10 -48 0 -78 22 -63 47 11 18 62 22 154 10 19 -2 50
-5 68 -6 19 0 31 -5 27 -11 -3 -5 -1 -10 4 -10 6 0 11 4 11 9 0 14 286 1 390
-18 30 -5 88 -10 128 -10 l72 -1 0 84 0 84 -40 4 c-22 2 -40 0 -40 -4 0 -15
-85 -13 -97 2 -9 10 -12 11 -13 3 0 -7 -12 -13 -26 -13 -14 0 -23 4 -20 9 7
11 -441 7 -467 -4 -9 -4 -23 -2 -31 4 -8 7 -57 10 -132 9 -136 -2 -261 6 -420
28 -61 8 -137 14 -170 13 -77 -1 -276 12 -288 19 -5 3 -64 11 -130 18 -67 7
-132 15 -146 18 -14 3 -80 10 -148 16 -68 5 -134 13 -147 16 -16 4 -37 -1 -60
-15 -47 -27 -50 -27 -65 9 -16 38 -87 110 -109 110 -9 0 -21 4 -27 10 -5 5
-90 14 -189 20 -99 6 -216 15 -260 20 -44 6 -129 10 -190 11 -60 0 -162 4
-225 10 -287 23 -398 30 -575 35 -104 3 -194 10 -200 15 -5 5 -71 9 -147 9
-76 0 -203 6 -281 14 -78 8 -171 17 -207 20 -36 3 -89 10 -119 16 -36 7 -825
10 -2342 10 l-2289 0 0 -877z m125 787 c3 -5 -3 -10 -14 -10 -12 0 -21 5 -21
10 0 6 6 10 14 10 8 0 18 -4 21 -10z m100 0 c-3 -5 -10 -10 -16 -10 -5 0 -9 5
-9 10 0 6 7 10 16 10 8 0 12 -4 9 -10z m131 -4 c19 -19 18 -26 -4 -26 -19 0
-42 18 -42 32 0 13 30 9 46 -6z m233 -22 c2 -2 -30 -4 -73 -4 -42 0 -75 4 -72
9 5 8 135 3 145 -5z m72 7 c20 12 38 11 19 -2 -12 -8 -12 -10 5 -8 11 1 36 0
55 -1 32 -2 31 -3 -13 -9 -65 -9 -117 -2 -117 15 0 11 5 12 18 5 11 -6 24 -6
33 0z m335 -25 c10 -8 16 -18 12 -21 -12 -12 -58 4 -58 20 0 19 20 19 46 1z
m-169 -2 c-3 -3 -12 -4 -19 -1 -8 3 -5 6 6 6 11 1 17 -2 13 -5z m383 -9 c14
-17 7 -45 -12 -45 -20 0 -35 13 -42 38 -6 19 -4 22 17 22 14 0 30 -7 37 -15z
m94 -20 c10 -4 21 -4 25 1 10 14 94 11 99 -4 2 -6 9 -9 15 -5 20 12 168 3 183
-12 21 -20 17 -25 -13 -20 -16 2 -90 7 -165 10 -154 6 -195 12 -201 29 -5 13
27 14 57 1z m444 -19 c20 -12 14 -23 -17 -28 -38 -6 -71 7 -71 27 0 12 8 15
38 12 20 -1 43 -6 50 -11z m134 -8 c20 -38 18 -48 -12 -48 -20 0 -29 6 -33 21
-12 47 22 67 45 27z m236 -37 c3 -8 -1 -12 -9 -9 -7 2 -15 10 -17 17 -3 8 1
12 9 9 7 -2 15 -10 17 -17z m142 -3 c0 -6 -6 -5 -15 2 -8 7 -15 14 -15 16 0 2
7 1 15 -2 8 -4 15 -11 15 -16z m-95 2 c3 -5 2 -10 -4 -10 -5 0 -13 5 -16 10
-3 6 -2 10 4 10 5 0 13 -4 16 -10z m-1888 -6 c-3 -3 -12 -4 -19 -1 -8 3 -5 6
6 6 11 1 17 -2 13 -5z m1084 -34 c19 -16 21 -21 10 -29 -24 -15 -46 -6 -49 22
-4 32 7 34 39 7z m107 -18 c2 -7 -6 -12 -17 -12 -21 0 -27 11 -14 24 9 9 26 2
31 -12z m149 -9 c6 -17 -38 -28 -48 -12 -4 7 -5 17 -2 22 7 12 46 4 50 -10z
m263 2 c7 -8 19 -15 27 -15 9 0 11 -5 6 -12 -4 -7 5 -5 21 5 21 14 30 16 42 6
11 -9 14 -8 14 7 0 12 3 15 8 8 4 -7 49 -14 106 -18 55 -3 104 -10 110 -16 5
-5 20 -10 33 -10 14 0 23 -6 23 -15 0 -26 58 -18 86 12 22 24 28 26 57 16 52
-18 100 -27 135 -24 18 1 39 -3 47 -9 11 -9 27 -9 67 0 29 6 77 8 108 4 62 -7
111 -31 90 -44 -15 -10 40 -37 84 -42 26 -3 32 2 50 37 23 44 15 42 141 31 93
-8 370 -20 392 -18 12 1 24 -2 28 -7 4 -7 15 -7 30 -1 16 6 25 6 25 0 0 -6 7
-10 15 -10 8 0 25 -15 37 -32 25 -35 78 -50 78 -22 0 8 5 14 10 14 6 0 10 6
10 13 0 29 74 46 110 27 27 -14 299 -15 313 -1 17 17 55 13 60 -6 4 -17 5 -17
6 0 0 10 -10 22 -24 29 -35 16 -31 34 11 54 33 16 46 16 222 -1 179 -16 290
-22 542 -30 196 -6 354 -17 373 -27 9 -5 21 -7 25 -5 4 3 30 1 57 -4 28 -5
106 -12 175 -15 76 -4 136 -11 154 -20 16 -8 36 -14 43 -14 21 0 10 -24 -13
-29 -22 -4 -44 -20 -44 -32 0 -12 31 -19 111 -24 40 -3 76 -10 80 -17 5 -8 11
-9 21 -1 21 16 66 24 73 12 4 -6 13 -8 21 -5 7 3 20 -1 28 -9 8 -8 19 -15 25
-15 6 0 11 -7 11 -15 0 -8 5 -15 11 -15 6 0 9 -6 6 -14 -3 -8 8 -19 29 -30 46
-21 54 -20 55 7 0 12 3 16 6 9 7 -17 23 -5 23 17 0 38 23 44 117 32 49 -7 111
-14 138 -16 85 -7 115 -15 115 -30 0 -8 5 -15 10 -15 6 0 10 -6 10 -13 0 -14
37 -39 65 -44 11 -2 58 -6 105 -9 47 -3 88 -11 92 -18 4 -6 8 -25 8 -42 0 -26
-5 -33 -25 -38 -14 -4 -25 -11 -25 -17 0 -6 -13 -1 -29 10 -29 21 -57 28 -47
13 2 -4 -52 -6 -120 -5 -74 1 -122 -1 -119 -7 3 -5 -7 -2 -22 6 -18 9 -53 14
-98 13 -38 -1 -97 2 -130 6 -33 4 -64 7 -70 7 -115 -5 -399 3 -413 12 -4 2
-26 4 -49 3 -24 0 -48 5 -55 10 -7 5 -24 7 -38 5 -14 -2 -49 -4 -79 -3 -30 1
-71 -3 -91 -9 -24 -7 -63 -7 -116 0 l-79 10 -25 -30 c-39 -46 -76 -57 -172
-49 -99 8 -124 20 -148 74 -10 22 -19 33 -19 24 -1 -10 -22 -25 -56 -39 -30
-12 -53 -26 -50 -30 6 -10 -137 20 -151 31 -6 5 -18 7 -27 3 -8 -3 -18 -1 -21
4 -3 5 -27 4 -58 -4 -64 -17 -163 -3 -189 27 -9 10 -20 14 -25 10 -18 -16 -91
-29 -134 -25 -25 3 -72 6 -104 8 -38 1 -61 7 -64 15 -4 11 -6 10 -13 0 -6 -10
-9 -11 -9 -1 0 6 -7 12 -15 12 -8 0 -15 5 -15 11 0 9 -37 28 -87 43 -15 5 -23
3 -23 -5 0 -26 -33 -49 -72 -49 -31 0 -38 4 -38 20 0 33 -31 42 -56 15 -18
-20 -31 -24 -74 -23 -32 1 -55 -3 -60 -11 -5 -9 -20 -11 -49 -6 -33 5 -41 4
-41 -8 0 -11 -8 -8 -30 11 -16 15 -30 32 -30 40 0 7 -7 15 -16 19 -8 3 -13 12
-10 19 7 17 -13 29 -26 16 -6 -6 -11 -23 -13 -39 -5 -53 -17 -84 -31 -79 -7 3
-15 0 -18 -7 -3 -7 -3 -2 0 11 3 12 1 22 -4 22 -5 0 -15 14 -22 30 -8 18 -20
30 -31 30 -12 0 -19 7 -19 20 0 21 -3 22 -100 25 -64 3 -72 4 -67 13 8 12 -49
14 -160 6 -48 -4 -73 -2 -73 5 0 6 -6 8 -13 5 -8 -3 -20 2 -27 11 -10 12 -16
13 -26 4 -8 -6 -24 -8 -36 -4 -13 3 -74 9 -137 11 -63 3 -122 9 -130 14 -9 4
-37 11 -63 15 -43 6 -48 5 -48 -11 -1 -18 -1 -18 -11 -1 -6 11 -22 18 -42 18
-101 0 -254 12 -263 20 -14 12 -44 1 -44 -15 0 -7 -11 -18 -25 -24 -23 -11
-29 -9 -49 13 -22 24 -108 51 -127 40 -5 -4 -9 1 -9 9 0 9 -7 16 -15 16 -15 0
-20 28 -15 93 1 20 -3 27 -17 27 -17 1 -17 2 1 15 11 8 14 15 8 15 -7 0 -5 7
6 19 21 23 65 27 82 6z m4220 -155 c0 -5 9 -10 20 -10 33 0 23 -29 -15 -45
-33 -13 -37 -13 -55 5 -25 25 -25 26 8 44 32 18 42 19 42 6z m1483 -7 c-13 -2
-33 -2 -45 0 -13 2 -3 4 22 4 25 0 35 -2 23 -4z m-1235 -40 c-5 -24 -25 -27
-31 -3 -4 15 0 20 15 20 13 0 18 -6 16 -17z m359 -1 c9 -6 7 -12 -7 -25 -35
-30 -76 -17 -62 21 5 13 50 16 69 4z m1693 -42 c5 -8 9 -8 13 4 4 9 13 13 22
10 8 -3 12 -10 9 -15 -3 -5 -1 -9 5 -9 5 0 11 4 13 9 2 5 18 6 36 4 32 -5 32
-6 16 -24 -12 -14 -31 -19 -64 -19 -48 0 -153 36 -145 50 7 12 87 4 95 -10z
m-327 3 c-7 -2 -19 -2 -25 0 -7 3 -2 5 12 5 14 0 19 -2 13 -5z m91 -8 c3 -8 1
-15 -4 -15 -6 0 -10 7 -10 15 0 8 2 15 4 15 2 0 6 -7 10 -15z m-34 -5 c0 -5
-4 -10 -10 -10 -5 0 -10 5 -10 10 0 6 5 10 10 10 6 0 10 -4 10 -10z m528 -13
c15 -16 14 -17 -11 -17 -16 0 -26 4 -22 10 3 6 1 10 -4 10 -6 0 -11 -4 -11
-10 0 -5 -9 -10 -20 -10 -11 0 -20 6 -20 13 0 8 -3 7 -10 -3 -7 -12 -12 -12
-22 -2 -9 9 -9 12 1 12 7 0 10 4 7 9 -11 17 94 5 112 -12z m-331 -7 c3 -10 2
-11 -4 -4 -4 7 -17 14 -28 17 -16 5 -15 5 4 4 14 -1 26 -9 28 -17z m-6324 -7
c-7 -2 -21 -2 -30 0 -10 3 -4 5 12 5 17 0 24 -2 18 -5z m1000 -50 c-7 -2 -21
-2 -30 0 -10 3 -4 5 12 5 17 0 24 -2 18 -5z m-513 -63 c0 -5 -5 -10 -11 -10
-5 0 -7 5 -4 10 3 6 8 10 11 10 2 0 4 -4 4 -10z m543 -37 c-7 -2 -19 -2 -25 0
-7 3 -2 5 12 5 14 0 19 -2 13 -5z m127 3 c0 -3 -4 -8 -10 -11 -5 -3 -10 -1
-10 4 0 6 5 11 10 11 6 0 10 -2 10 -4z m-295 -66 c17 -19 17 -20 -1 -20 -27 0
-48 16 -40 29 10 16 20 14 41 -9z m652 -6 c-3 -3 -12 -4 -19 -1 -8 3 -5 6 6 6
11 1 17 -2 13 -5z m-491 -54 c-1 -40 -26 -40 -26 0 0 19 5 30 14 30 8 0 13
-11 12 -30z m154 14 c0 -9 -7 -14 -17 -12 -25 5 -28 28 -4 28 12 0 21 -6 21
-16z m378 5 c15 2 22 -3 22 -14 0 -13 -6 -16 -24 -11 -16 4 -26 1 -30 -9 -10
-26 -23 -16 -18 15 3 19 8 27 16 23 6 -4 21 -6 34 -4z m-471 -5 c-3 -3 -12 -4
-19 -1 -8 3 -5 6 6 6 11 1 17 -2 13 -5z m868 -4 c3 -5 -1 -10 -10 -10 -9 0
-13 5 -10 10 3 6 8 10 10 10 2 0 7 -4 10 -10z m233 -3 c16 -10 8 -23 -17 -30
-14 -3 -18 -1 -14 9 3 8 0 14 -7 14 -6 0 -9 4 -6 9 7 10 25 9 44 -2z m-598
-41 c0 -11 -19 -15 -25 -6 -3 5 1 10 9 10 9 0 16 -2 16 -4z m-580 -70 c0 -2
-7 -7 -16 -10 -8 -3 -12 -2 -9 4 6 10 25 14 25 6z m1173 -20 c7 -18 -1 -26
-25 -26 -16 0 -16 3 -6 20 15 24 24 25 31 6z m-613 -26 c0 -22 -5 -30 -17 -30
-10 0 -28 -3 -40 -6 -18 -5 -23 -2 -23 12 0 26 29 54 57 54 19 0 23 -5 23 -30z
m-287 -192 c28 -17 38 -30 32 -45 -2 -7 0 -13 5 -13 5 0 19 -18 30 -39 10 -22
24 -41 30 -43 28 -9 31 -153 3 -173 -9 -7 -23 -11 -30 -8 -7 3 -13 1 -13 -4 0
-14 -54 -10 -65 5 -7 9 -43 15 -108 17 -108 5 -116 7 -112 33 1 9 0 11 -2 5
-5 -15 -43 -18 -43 -4 0 6 8 16 18 23 25 19 62 74 62 93 0 9 7 18 15 21 17 7
21 34 4 34 -5 0 -8 4 -5 9 3 5 15 7 26 4 12 -3 22 1 26 11 3 9 15 16 25 16 23
0 25 15 4 24 -24 9 -19 39 5 33 11 -3 20 -1 20 4 0 13 47 11 73 -3z m-439 -90
c-4 -14 0 -18 18 -18 22 -1 22 -1 3 -12 -11 -6 -22 -14 -25 -18 -3 -4 -14 -12
-25 -18 -19 -10 -18 -11 10 -23 24 -10 27 -13 11 -17 -10 -2 -34 4 -53 15 -28
15 -33 22 -28 43 5 20 4 23 -6 13 -17 -17 -29 -16 -29 2 0 8 4 15 8 15 4 0 12
15 17 33 7 22 17 33 33 35 12 2 22 9 22 15 1 7 12 -1 25 -18 15 -18 22 -37 19
-47z m-59 -108 c-3 -5 -13 -10 -21 -10 -8 0 -14 5 -14 10 0 6 9 10 21 10 11 0
17 -4 14 -10z m15 -30 c0 -5 -18 -10 -40 -10 -22 0 -40 5 -40 10 0 6 18 10 40
10 22 0 40 -4 40 -10z m581 -200 c11 0 27 -4 37 -10 9 -5 44 -17 77 -26 l61
-17 0 -58 c1 -41 7 -67 22 -91 l22 -33 0 33 c0 18 4 31 9 28 14 -9 19 -55 7
-60 -8 -3 -8 -7 0 -13 23 -18 9 -72 -19 -73 -5 0 -5 5 -2 10 3 6 -3 10 -13 10
-22 0 -32 18 -32 57 0 43 -25 19 -32 -31 -4 -27 -8 -50 -10 -52 -2 -2 -25 -6
-51 -9 -38 -5 -50 -2 -67 15 -11 11 -25 18 -30 15 -6 -3 -7 1 -4 9 7 18 -16
22 -32 6 -12 -12 -79 -21 -99 -14 -18 7 -20 35 -4 51 19 19 22 82 4 109 -9 13
-20 22 -25 19 -5 -3 -14 4 -20 15 -6 11 -15 18 -21 15 -16 -11 -10 7 9 21 16
13 16 13 0 14 -22 0 -24 26 -2 34 9 3 46 6 83 6 56 0 71 4 87 21 10 11 20 16
22 10 2 -6 12 -11 23 -11z m-424 -56 c-3 -3 -12 -4 -19 -1 -8 3 -5 6 6 6 11 1
17 -2 13 -5z m30 -79 c1 -19 -3 -38 -8 -41 -5 -3 -9 -14 -9 -25 0 -14 -7 -19
-27 -19 -27 1 -27 1 -9 15 20 15 20 15 0 30 -19 14 -18 14 4 15 12 0 22 5 22
10 0 6 -4 10 -10 10 -14 0 -13 18 2 34 20 21 34 9 35 -29z m1093 29 c0 -8 -5
-12 -10 -9 -6 4 -8 11 -5 16 9 14 15 11 15 -7z m441 -4 c43 -6 78 -6 100 0 28
8 36 7 46 -6 16 -22 123 -25 140 -4 11 13 14 13 23 0 5 -8 10 -25 10 -38 0
-13 4 -20 10 -17 6 3 10 -4 10 -17 0 -32 22 -78 38 -78 6 0 12 -9 12 -20 0
-11 5 -29 11 -39 27 -42 -32 -120 -70 -93 -36 27 -60 31 -93 19 -18 -7 -45
-12 -59 -11 -62 3 -139 32 -139 52 0 7 -5 10 -11 7 -7 -5 -8 14 -3 64 6 65 5
71 -12 71 -23 1 -54 23 -54 39 0 6 -9 11 -20 11 -25 0 -41 29 -29 52 11 21 5
20 90 8z m-342 -7 c0 -5 -4 -16 -8 -26 -6 -17 -8 -16 -19 7 -10 23 -9 26 8 26
11 0 20 -3 19 -7z m74 -11 c-2 -7 2 -12 9 -12 6 0 9 -3 6 -6 -9 -8 -48 14 -48
27 0 6 8 9 18 7 9 -2 16 -10 15 -16z m-103 -27 c0 -8 -4 -15 -9 -15 -5 0 -11
7 -15 15 -3 9 0 15 9 15 8 0 15 -7 15 -15z m-953 -127 c-3 -8 -6 -5 -6 6 -1
11 2 17 5 13 3 -3 4 -12 1 -19z m1127 -306 c3 -5 -1 -9 -9 -9 -8 0 -12 4 -9 9
3 4 7 8 9 8 2 0 6 -4 9 -8z m650 -43 c-3 -6 0 -16 6 -24 10 -12 9 -15 -4 -15
-9 0 -16 8 -16 20 0 11 -5 20 -11 20 -5 0 -8 4 -4 10 3 5 12 7 20 4 8 -4 12
-10 9 -15z m372 0 c6 -5 14 -6 17 -3 9 9 67 -16 67 -28 0 -6 6 -6 14 1 16 13
42 2 78 -31 41 -40 13 -51 -117 -44 -49 2 -91 8 -93 14 -1 5 -22 7 -45 5 -39
-5 -44 -3 -55 21 -29 65 -9 88 67 80 31 -4 61 -11 67 -15z m-276 -27 c0 -14
-11 -21 -26 -15 -8 3 -11 9 -8 14 7 11 34 12 34 1z m2950 -712 c0 -5 -4 -10
-9 -10 -6 0 -13 5 -16 10 -3 6 1 10 9 10 9 0 16 -4 16 -10z m148 -189 c3 -10
0 -12 -12 -8 -9 4 -25 1 -36 -5 -23 -14 -33 -7 -24 16 8 21 65 18 72 -3z m65
-10 c-2 -10 3 -26 12 -35 21 -20 33 -13 15 9 -10 12 -10 15 3 15 9 0 19 -5 22
-10 5 -8 11 -7 21 1 11 9 14 8 14 -3 0 -24 -27 -52 -51 -54 -13 -1 -36 -6 -50
-12 -33 -13 -44 -15 -96 -13 -24 0 -43 5 -43 10 0 5 18 7 40 4 32 -5 40 -3 40
10 0 10 6 14 15 11 8 -4 23 -3 33 1 15 6 13 9 -10 21 -30 16 -37 34 -13 34 8
0 14 3 14 8 -3 17 2 22 20 22 14 0 18 -5 14 -19z m163 -57 c7 -5 9 -16 5 -22
-13 -21 -71 15 -71 43 0 31 22 37 39 11 8 -12 20 -26 27 -32z m-316 20 c0 -17
-22 -14 -28 4 -2 7 3 12 12 12 9 0 16 -7 16 -16z m-52 -81 c6 -15 12 -33 12
-40 0 -18 -17 -16 -24 2 -3 8 -11 15 -18 15 -12 0 -48 34 -48 45 0 3 15 5 33
5 25 0 35 -6 45 -27z m-413 -43 c4 -6 12 -9 18 -8 24 5 127 -34 127 -48 0 -8
4 -14 9 -14 12 0 61 -47 61 -59 0 -11 -39 -26 -57 -23 -7 2 -13 -2 -13 -8 0
-25 -18 -6 -29 30 -7 23 -18 40 -26 40 -8 0 -15 9 -15 20 0 11 -8 23 -17 26
-10 3 -29 11 -42 17 -19 9 -25 9 -28 0 -5 -15 -41 -17 -61 -5 -7 5 -10 16 -6
25 7 19 68 24 79 7z m226 -2 c0 -10 2 -10 6 0 6 15 33 16 33 1 0 -6 9 -9 20
-6 11 3 23 1 26 -4 3 -5 12 -9 20 -9 8 0 23 -9 34 -20 25 -25 9 -26 -27 -3
-19 13 -28 14 -31 5 -7 -22 -67 -14 -90 13 -26 30 -27 35 -7 35 8 0 15 -6 16
-12z m367 -47 c3 -8 -1 -12 -9 -9 -7 2 -15 10 -17 17 -3 8 1 12 9 9 7 -2 15
-10 17 -17z m85 -21 c3 -11 1 -22 -3 -25 -11 -7 -32 30 -23 39 11 11 21 6 26
-14z m-353 0 c0 -5 -7 -10 -16 -10 -8 0 -12 5 -9 10 3 6 10 10 16 10 5 0 9 -4
9 -10z m148 -25 c14 -31 15 -35 3 -35 -5 0 -16 14 -25 30 -11 23 -11 30 -2 30
7 0 18 -11 24 -25z m72 -5 c0 -5 -7 -10 -15 -10 -8 0 -15 5 -15 10 0 6 7 10
15 10 8 0 15 -4 15 -10z m-272 -32 c22 -22 13 -38 -20 -39 l-33 -2 30 -4 c52
-7 58 -11 41 -28 -17 -18 -11 -45 10 -45 8 0 14 -4 14 -9 0 -5 -6 -8 -12 -6
-41 10 -58 19 -58 30 0 7 -7 15 -15 19 -22 8 -20 72 3 85 22 13 26 13 40 -1z
m432 -28 c8 -2 -5 -6 -30 -9 -48 -7 -70 -4 -70 9 0 7 61 7 100 0z m237 -12
c-3 -8 -6 -5 -6 6 -1 11 2 17 5 13 3 -3 4 -12 1 -19z m-404 -8 c-3 -11 -9 -17
-15 -14 -5 3 -4 12 3 20 16 19 18 18 12 -6z m542 0 c-3 -5 -10 -10 -16 -10 -5
0 -9 5 -9 10 0 6 7 10 16 10 8 0 12 -4 9 -10z m425 -30 c0 -5 -5 -10 -11 -10
-5 0 -7 5 -4 10 3 6 8 10 11 10 2 0 4 -4 4 -10z m-340 -13 c-25 -6 -48 -15
-52 -21 -5 -7 -8 -5 -8 6 0 19 19 26 70 26 34 0 33 -1 -10 -11z m-450 -1 c0
-3 -4 -8 -10 -11 -5 -3 -10 -1 -10 4 0 6 5 11 10 11 6 0 10 -2 10 -4z m-360
-16 c0 -5 -4 -10 -10 -10 -5 0 -10 5 -10 10 0 6 5 10 10 10 6 0 10 -4 10 -10z
m157 -5 c20 -20 14 -25 -36 -32 -37 -5 -41 -4 -41 16 0 18 4 20 25 15 15 -4
25 -2 25 5 0 15 9 14 27 -4z m584 -11 c12 -14 11 -16 -5 -13 -11 2 -21 10 -24
17 -5 17 13 15 29 -4z m-224 -36 c-3 -8 -6 -5 -6 6 -1 11 2 17 5 13 3 -3 4
-12 1 -19z m341 11 c20 -1 17 -3 -13 -9 -22 -4 -43 -6 -48 -3 -13 8 4 25 20
19 8 -3 27 -7 41 -7z m-808 -9 c12 -8 9 -10 -12 -10 -16 0 -28 5 -28 10 0 13
20 13 40 0z m440 -9 c0 -12 -84 -21 -94 -10 -6 5 1 9 20 9 16 0 36 4 44 9 15
10 30 6 30 -8z m-373 -23 c-3 -7 -5 -2 -5 12 0 14 2 19 5 13 2 -7 2 -19 0 -25z
m703 -7 c0 -19 -20 -22 -42 -7 -22 16 -22 16 10 16 17 0 32 -4 32 -9z m45 -1
c3 -5 -1 -10 -9 -10 -8 0 -18 5 -21 10 -3 6 1 10 9 10 8 0 18 -4 21 -10z
m-802 -7 c-7 -2 -19 -2 -25 0 -7 3 -2 5 12 5 14 0 19 -2 13 -5z m91 -49 c17
-16 13 -34 -7 -34 -7 0 -6 4 3 10 12 7 11 10 -5 16 -11 5 -20 3 -23 -4 -4 -14
-22 -6 -22 9 0 6 4 8 9 4 5 -3 12 -1 16 5 8 13 11 13 29 -6z m-284 -14 c0 -5
-15 -10 -32 -9 -31 1 -32 1 -8 9 35 11 40 11 40 0z m1593 -7 c-7 -2 -19 -2
-25 0 -7 3 -2 5 12 5 14 0 19 -2 13 -5z m-1703 -23 c11 -11 20 -17 20 -12 0
11 20 -21 20 -33 0 -5 -5 -3 -10 5 -7 10 -10 11 -10 2 0 -7 7 -15 15 -18 8 -4
15 -14 15 -24 0 -45 11 -49 43 -15 l31 33 23 -31 c26 -35 22 -49 -7 -22 -23
21 -27 8 -5 -21 8 -10 14 -30 13 -44 -1 -22 -1 -22 -5 -4 -2 12 -13 30 -24 40
-18 16 -19 16 -19 -7 0 -14 6 -31 12 -37 10 -10 8 -12 -11 -10 -19 2 -26 -3
-31 -22 -5 -20 -7 -22 -12 -8 -4 9 -1 22 8 28 8 7 14 22 13 34 0 11 -3 15 -6
9 -9 -23 -20 -13 -32 30 -17 59 -36 98 -61 125 -26 27 -8 30 20 2z m887 14
c-3 -3 -12 -4 -19 -1 -8 3 -5 6 6 6 11 1 17 -2 13 -5z m321 -22 c2 -7 -6 -12
-21 -12 -32 0 -58 10 -52 20 8 12 68 6 73 -8z m-1293 -2 c3 -5 1 -10 -4 -10
-6 0 -11 5 -11 10 0 6 2 10 4 10 3 0 8 -4 11 -10z m225 -1 c0 -4 -14 -10 -30
-14 -25 -5 -30 -11 -25 -26 5 -13 2 -17 -8 -14 -7 3 -14 11 -14 18 0 7 -4 19
-7 28 -6 13 1 16 39 16 25 0 45 -4 45 -8z m240 -5 c0 5 7 3 15 -4 9 -7 15 -8
15 -2 0 10 6 10 49 -3 l24 -8 -24 -19 c-13 -11 -19 -17 -14 -15 6 3 22 -11 35
-31 14 -20 27 -39 30 -42 3 -3 6 -13 6 -23 2 -17 1 -17 -17 -1 -10 9 -19 24
-19 33 -1 26 -26 52 -44 45 -13 -5 -16 0 -16 24 0 25 -3 29 -20 25 -11 -3 -17
-10 -13 -17 4 -7 3 -8 -4 -1 -6 6 -14 21 -18 35 -5 19 -4 21 4 10 6 -8 11 -11
11 -6z m-790 -47 c0 -18 -2 -19 -10 -7 -8 12 -10 12 -10 1 0 -8 -2 -12 -5 -10
-2 3 -2 15 2 27 7 27 23 19 23 -11z m267 -4 c-3 -10 -5 -4 -5 12 0 17 2 24 5
18 2 -7 2 -21 0 -30z m163 -23 c0 -26 -19 -14 -33 21 l-16 41 24 -26 c14 -15
25 -31 25 -36z m1310 43 c49 -34 52 -41 22 -47 -15 -3 -36 -4 -47 -2 -11 3
-24 5 -28 5 -4 1 -4 9 1 19 5 9 7 23 5 30 -7 17 18 15 47 -5z m-1147 0 c-21
-8 -15 -20 17 -33 17 -7 30 -19 30 -26 0 -18 -14 -18 -30 1 -7 9 -15 13 -18
10 -9 -9 -32 17 -32 36 0 13 7 19 23 18 12 0 16 -3 10 -6z m142 -13 c3 -5 2
-10 -4 -10 -5 0 -13 5 -16 10 -3 6 -2 10 4 10 5 0 13 -4 16 -10z m184 -14 c7
-8 8 -17 3 -20 -6 -3 -12 3 -15 14 -6 24 -4 25 12 6z m-252 -2 c-3 -3 -12 -4
-19 -1 -8 3 -5 6 6 6 11 1 17 -2 13 -5z m-440 -36 c-3 -8 -6 -5 -6 6 -1 11 2
17 5 13 3 -3 4 -12 1 -19z m1691 14 c12 -1 22 -9 22 -17 0 -8 7 -15 15 -15 8
0 15 -9 15 -20 0 -22 -39 -37 -67 -24 -10 4 -21 6 -25 6 -12 -3 -9 13 4 26 6
6 10 14 7 16 -8 8 -93 9 -113 1 -14 -6 -17 -5 -12 3 4 7 14 12 22 12 8 0 14 3
14 8 0 6 55 8 118 4z m-1628 -49 c0 -12 -4 -25 -10 -28 -12 -8 -24 40 -16 62
6 15 8 15 16 3 6 -8 10 -25 10 -37z m554 7 c-6 -5 -24 21 -24 34 0 6 6 1 14
-10 8 -10 12 -21 10 -24z m116 30 c0 -5 -4 -10 -10 -10 -5 0 -10 5 -10 10 0 6
5 10 10 10 6 0 10 -4 10 -10z m510 0 c-19 -13 -30 -13 -30 0 0 6 10 10 23 10
18 0 19 -2 7 -10z m-485 -20 c3 -5 1 -10 -4 -10 -6 0 -11 5 -11 10 0 6 2 10 4
10 3 0 8 -4 11 -10z m535 -11 c0 -6 -4 -7 -10 -4 -5 3 -10 11 -10 16 0 6 5 7
10 4 6 -3 10 -11 10 -16z m-1590 -4 c0 -8 -4 -15 -10 -15 -5 0 -10 -11 -10
-25 0 -14 -4 -25 -10 -25 -14 0 -13 20 3 53 13 29 27 36 27 12z m320 5 c0 -5
-2 -10 -4 -10 -3 0 -8 5 -11 10 -3 6 -1 10 4 10 6 0 11 -4 11 -10z m1534 -25
c6 -16 -3 -19 -28 -9 -22 8 -20 24 3 24 10 0 21 -7 25 -15z m-939 -15 c3 -5 2
-10 -4 -10 -5 0 -13 5 -16 10 -3 6 -2 10 4 10 5 0 13 -4 16 -10z m52 -26 c-9
-9 -27 6 -27 22 0 13 2 13 16 -1 9 -9 14 -18 11 -21z m-1337 6 c0 -5 7 -7 15
-4 9 4 15 0 15 -10 0 -22 -13 -20 -35 4 -10 11 -13 20 -7 20 7 0 12 -4 12 -10z
m860 1 c1 8 8 1 16 -14 9 -16 14 -31 11 -33 -5 -6 -57 39 -57 50 0 5 7 3 15
-4 12 -10 15 -10 15 1z m1515 -11 c3 -6 -1 -13 -10 -16 -19 -8 -30 0 -20 15 8
14 22 14 30 1z m-1973 -27 c-3 -16 -7 -22 -10 -15 -4 13 4 42 11 42 2 0 2 -12
-1 -27z m618 12 c0 -8 -4 -15 -10 -15 -5 0 -10 7 -10 15 0 8 5 15 10 15 6 0
10 -7 10 -15z m895 9 c13 -5 14 -9 4 -15 -10 -6 -7 -10 10 -17 14 -5 20 -11
15 -15 -12 -7 -22 0 -48 31 -19 22 -12 28 19 16z m68 -14 c9 -11 23 -20 31
-20 23 0 29 -19 11 -37 -14 -14 -18 -14 -26 -2 -5 8 -9 18 -9 24 0 5 -12 19
-27 32 -19 15 -23 22 -13 23 9 0 23 -9 33 -20z m-1306 -12 c-3 -8 -6 -5 -6 6
-1 11 2 17 5 13 3 -3 4 -12 1 -19z m20 -25 c-3 -10 -5 -2 -5 17 0 19 2 27 5
18 2 -10 2 -26 0 -35z m280 5 c-3 -8 -6 -5 -6 6 -1 11 2 17 5 13 3 -3 4 -12 1
-19z m322 -23 c0 -5 -4 -3 -9 5 -5 8 -9 22 -9 30 0 16 17 -16 18 -35z m1071
14 c0 -8 -67 -5 -77 4 -14 15 19 24 48 14 16 -6 29 -14 29 -18z m110 15 c0 -8
-5 -12 -10 -9 -6 4 -17 1 -25 -5 -10 -8 -15 -9 -15 -2 0 11 28 31 43 32 4 0 7
-7 7 -16z m-2410 -8 c0 -7 -7 -19 -15 -26 -8 -6 -13 -17 -12 -22 1 -6 -4 -13
-10 -15 -17 -6 -17 49 -1 65 16 16 38 15 38 -2z m1317 -1 c-4 -8 -2 -17 3 -20
6 -4 10 0 11 7 1 12 19 -38 34 -96 5 -19 5 -19 -5 -3 -6 9 -16 15 -21 11 -5
-3 -25 6 -43 20 -19 14 -37 22 -41 18 -18 -16 10 25 34 50 30 31 35 33 28 13z
m68 -30 c10 0 20 -7 22 -15 4 -12 3 -13 -5 -1 -11 16 -35 5 -26 -12 3 -7 -2
-3 -10 7 -9 11 -16 31 -15 45 l1 26 7 -25 c4 -15 14 -25 26 -25z m788 38 c-7
-2 -21 -2 -30 0 -10 3 -4 5 12 5 17 0 24 -2 18 -5z m-2250 -25 c-24 -23 -40
-20 -30 7 4 8 17 15 29 15 l22 0 -21 -22z m2414 -4 c-9 -9 -28 6 -21 18 4 6
10 6 17 -1 6 -6 8 -13 4 -17z m-871 -25 c-4 -22 -1 -29 14 -34 11 -4 20 -11
20 -17 0 -7 -4 -7 -13 1 -10 8 -17 7 -26 -2 -10 -9 -11 -9 -6 5 5 11 1 16 -12
15 -12 -2 -19 6 -20 23 l-3 25 11 -25 c8 -20 12 -22 19 -10 5 8 6 26 3 39 -4
18 -3 22 7 16 7 -4 10 -18 6 -36z m661 25 c5 -14 -38 -15 -54 -2 -7 5 -21 7
-30 4 -15 -6 -12 -10 15 -23 35 -17 45 -44 12 -36 -11 3 -20 9 -20 14 0 5 -14
18 -31 28 -31 19 -31 19 -8 24 37 7 113 1 116 -9z m-1631 -19 c3 -8 1 -27 -5
-42 l-11 -28 6 32 c4 24 1 34 -13 42 -17 10 -17 10 0 11 10 0 20 -7 23 -15z
m121 -17 c-3 -7 -5 -2 -5 12 0 14 2 19 5 13 2 -7 2 -19 0 -25z m262 -5 c0 -25
-1 -26 -9 -8 -12 27 -12 35 0 35 6 0 10 -12 9 -27z m-54 -3 c3 -5 1 -10 -4
-10 -6 0 -11 5 -11 10 0 6 2 10 4 10 3 0 8 -4 11 -10z m-935 -66 c0 -7 6 -17
14 -21 28 -17 57 -103 34 -103 -4 0 -8 14 -8 30 0 20 -5 30 -15 30 -8 0 -15 9
-15 20 0 11 -4 20 -10 20 -5 0 -13 12 -16 26 -4 16 -12 23 -20 20 -9 -4 -14 2
-14 16 0 21 0 21 25 -2 14 -13 25 -29 25 -36z m1519 16 c0 -10 -3 -8 -9 5 -12
27 -12 43 0 25 5 -8 9 -22 9 -30z m821 20 c12 -8 11 -10 -7 -10 -13 0 -23 5
-23 10 0 13 11 13 30 0z m-1571 -58 c-1 -38 -2 -42 -9 -22 -12 37 -12 82 0 75
6 -3 10 -27 9 -53z m656 27 c9 -17 15 -37 13 -45 -2 -8 -10 5 -19 30 -19 53
-16 59 6 15z m984 19 c10 -10 15 -10 18 -1 2 7 11 9 19 6 26 -10 -5 -23 -53
-23 -24 0 -43 -4 -43 -10 0 -15 -17 -12 -23 4 -4 10 -1 13 7 10 8 -3 20 2 27
10 17 19 31 20 48 4z m-792 -33 c4 0 8 -9 8 -19 1 -11 12 -27 23 -37 23 -18
29 -39 12 -39 -6 0 -13 7 -16 15 -4 8 -10 12 -15 9 -5 -3 -4 -14 2 -25 18 -34
4 -31 -15 3 -11 17 -14 28 -7 24 18 -11 13 25 -9 69 -13 24 -14 32 -5 20 9
-11 19 -20 22 -20z m131 -10 c-7 -7 -38 23 -38 36 0 5 10 1 22 -11 12 -11 19
-22 16 -25z m-1191 3 c-3 -7 -5 -2 -5 12 0 14 2 19 5 13 2 -7 2 -19 0 -25z
m1753 17 c20 -24 6 -28 -15 -5 -10 11 -13 20 -8 20 6 0 16 -7 23 -15z m-55
-15 c8 -13 -5 -13 -25 0 -13 8 -13 10 2 10 9 0 20 -4 23 -10z m-861 -25 c3 -8
1 -15 -4 -15 -6 0 -10 7 -10 15 0 8 2 15 4 15 2 0 6 -7 10 -15z m24 -10 c-3
-3 -9 2 -12 12 -6 14 -5 15 5 6 7 -7 10 -15 7 -18z m79 9 c5 -13 8 -13 15 -2
7 9 8 8 4 -5 -3 -10 -6 -23 -6 -29 0 -6 -9 1 -20 15 -22 28 -25 37 -10 37 6 0
13 -7 17 -16z m-151 -9 c-3 -8 -1 -15 4 -15 6 0 10 -5 10 -11 0 -8 -4 -8 -14
1 -13 10 -12 40 1 40 3 0 3 -7 -1 -15z m324 0 c7 -9 8 -15 2 -15 -5 0 -12 7
-16 15 -3 8 -4 15 -2 15 2 0 9 -7 16 -15z m-3021 -24 c3 -5 60 -12 125 -15 65
-3 125 -11 131 -16 7 -6 24 -8 38 -5 14 4 34 2 45 -4 15 -8 28 -8 46 0 19 9
36 9 73 -2 26 -7 51 -14 55 -14 3 0 10 -3 14 -7 4 -4 13 -3 21 3 10 9 13 8 13
-4 0 -10 13 -20 32 -25 37 -9 50 -32 19 -32 -12 0 -21 3 -21 8 0 4 -21 7 -47
7 -37 0 -49 -4 -58 -20 -9 -18 -16 -20 -60 -13 -160 24 -149 24 -326 14 l-147
-8 -30 44 c-25 37 -28 46 -17 61 7 9 22 17 35 17 15 0 20 5 17 14 -4 11 0 13
15 11 12 -3 24 -9 27 -14z m2531 -13 c11 -18 19 -46 18 -63 l-1 -30 -4 29 c-3
15 -13 43 -24 62 -24 43 -15 45 11 2z m372 2 c3 -23 2 -27 -8 -19 -7 6 -12 19
-11 30 2 29 14 23 19 -11z m793 9 c-5 -13 -2 -25 6 -30 18 -11 6 -21 -15 -13
-28 11 -20 55 12 63 2 1 0 -9 -3 -20z m-1908 -11 c-3 -8 -6 -5 -6 6 -1 11 2
17 5 13 3 -3 4 -12 1 -19z m294 -9 c-5 -13 -10 -19 -10 -12 -1 15 10 45 15 40
3 -2 0 -15 -5 -28z m779 -26 c-1 -10 -39 39 -40 51 0 5 9 -3 20 -17 11 -14 20
-29 20 -34z m87 -6 c15 -15 15 -17 1 -12 -16 6 -38 47 -37 68 0 7 5 1 10 -13
6 -13 17 -33 26 -43z m146 51 c15 -7 29 -20 32 -28 3 -8 17 -23 32 -32 21 -13
24 -18 10 -18 -10 0 -30 11 -44 24 -14 13 -31 22 -38 20 -6 -3 -17 7 -23 21
-13 28 -8 30 31 13z m-43 -19 c0 -5 -4 -9 -10 -9 -5 0 -10 7 -10 16 0 8 5 12
10 9 6 -3 10 -10 10 -16z m-1230 -9 c0 -11 -4 -20 -9 -20 -5 0 -7 9 -4 20 3
11 7 20 9 20 2 0 4 -9 4 -20z m940 0 c0 -5 -5 -10 -11 -10 -5 0 -7 5 -4 10 3
6 8 10 11 10 2 0 4 -4 4 -10z m1140 6 c0 -9 -40 -13 -46 -5 -3 5 6 9 20 9 14
0 26 -2 26 -4z m-1970 -10 c0 -3 -4 -8 -10 -11 -5 -3 -10 -1 -10 4 0 6 5 11
10 11 6 0 10 -2 10 -4z m2026 -14 c1 -7 0 -8 -2 -3 -3 6 -12 7 -20 4 -8 -3
-14 0 -14 7 0 15 33 9 36 -8z m-1082 -28 c3 -8 2 -12 -4 -9 -6 3 -10 10 -10
16 0 14 7 11 14 -7z m137 -20 c5 -15 7 -29 4 -32 -3 -3 -5 0 -5 7 0 7 -4 9
-10 6 -6 -4 -7 1 -3 10 3 10 0 21 -8 26 -10 6 -11 9 -1 9 7 0 17 -12 23 -26z
m-32 -29 c0 -5 -6 -1 -14 9 -8 11 -15 24 -15 30 0 5 7 1 15 -10 8 -10 14 -23
14 -29z m681 15 c0 -5 -4 -10 -10 -10 -5 0 -10 5 -10 10 0 6 5 10 10 10 6 0
10 -4 10 -10z m244 4 c22 -9 20 -24 -3 -24 -26 0 -51 10 -51 21 0 10 31 12 54
3z m-1336 -89 l1 -20 -9 20 c-5 11 -8 34 -8 50 l0 30 8 -30 c4 -16 8 -39 8
-50z m496 59 c3 -8 2 -12 -4 -9 -6 3 -10 10 -10 16 0 14 7 11 14 -7z m957 -1
c13 -17 13 -17 -6 -3 -11 8 -22 16 -24 17 -2 2 0 3 6 3 6 0 17 -8 24 -17z
m-71 -3 c0 -5 -7 -10 -16 -10 -8 0 -12 5 -9 10 3 6 10 10 16 10 5 0 9 -4 9
-10z m-670 -20 c0 -5 -4 -10 -10 -10 -5 0 -10 5 -10 10 0 6 5 10 10 10 6 0 10
-4 10 -10z m427 -7 c3 -7 -3 -9 -17 -6 -29 8 -37 25 -9 21 12 -1 24 -8 26 -15z
m-597 -36 c0 -7 7 -3 15 7 15 20 15 20 15 0 0 -11 5 -25 12 -32 9 -9 9 -12 0
-12 -7 0 -12 5 -12 10 0 6 -6 10 -12 10 -14 1 -58 34 -58 44 0 12 40 -15 40
-27z m-90 -20 c0 -5 -4 -5 -10 -2 -5 3 -10 14 -10 23 0 15 2 15 10 2 5 -8 10
-19 10 -23z m-398 -9 c-9 -9 -12 -7 -12 12 0 19 3 21 12 12 9 -9 9 -15 0 -24z
m335 0 c-3 -7 -5 -2 -5 12 0 14 2 19 5 13 2 -7 2 -19 0 -25z m103 -5 c8 -16
16 -32 19 -38 2 -5 -7 1 -22 14 l-26 23 -10 -33 c-5 -19 -10 -28 -10 -20 -1
19 21 81 29 81 4 0 13 -12 20 -27z m825 18 c-19 -8 -19 -8 0 -19 26 -15 14
-15 -22 -1 -26 10 -27 12 -8 19 11 5 27 9 35 9 9 0 8 -3 -5 -8z m-933 -45 c8
5 9 1 5 -10 -4 -10 -8 -30 -8 -44 -1 -27 -1 -27 -9 3 -4 17 -7 46 -7 65 0 29
1 30 4 7 3 -17 9 -25 15 -21z m-384 -41 c0 -29 0 -29 -8 -5 -4 14 -8 36 -8 50
-1 23 0 23 8 5 5 -11 8 -33 8 -50z m565 4 c4 -14 18 -42 31 -62 17 -25 21 -37
12 -37 -7 0 -20 12 -27 28 -8 15 -21 27 -29 27 -16 -1 -30 13 -30 30 0 6 4 3
9 -4 8 -12 11 -9 17 13 4 16 2 32 -5 39 -6 6 -11 16 -11 21 0 17 26 -27 33
-55z m77 45 c0 -8 -4 -12 -10 -9 -5 3 -10 10 -10 16 0 5 5 9 10 9 6 0 10 -7
10 -16z m-305 -14 c3 -5 1 -10 -4 -10 -6 0 -11 5 -11 10 0 6 2 10 4 10 3 0 8
-4 11 -10z m348 -65 l6 -40 -10 35 c-6 19 -15 44 -21 55 -9 18 -9 18 5 5 8 -8
17 -33 20 -55z m608 50 c-1 -15 -24 -12 -29 3 -3 9 2 13 12 10 10 -1 17 -7 17
-13z m-1318 -28 c-3 -5 -9 -3 -14 4 -4 7 -5 17 -2 22 3 5 9 3 14 -4 4 -7 5
-17 2 -22z m527 5 c0 -15 -2 -15 -10 -2 -13 20 -13 33 0 25 6 -3 10 -14 10
-23z m-24 -40 c1 -20 0 -30 -4 -22 -3 8 -9 18 -15 21 -5 4 -6 16 -2 29 9 29
19 17 21 -28z m-347 -9 c0 -32 -3 -42 -8 -29 -7 18 -3 76 5 76 2 0 4 -21 3
-47z m298 -35 c-2 -18 -4 -6 -4 27 0 33 2 48 4 33 2 -15 2 -42 0 -60z m743 72
c0 -5 -7 -10 -16 -10 -8 0 -12 5 -9 10 3 6 10 10 16 10 5 0 9 -4 9 -10z m54
-2 c-3 -4 -12 -8 -20 -8 -8 0 -14 4 -14 8 0 4 9 8 19 8 11 0 17 -4 15 -8z
m-586 -21 c3 -16 1 -17 -17 -5 -25 16 -27 31 -4 26 10 -2 19 -11 21 -21z
m-587 -57 c5 0 9 -12 9 -27 0 -14 -3 -23 -7 -20 -3 4 -12 -1 -19 -11 -11 -14
-12 -7 -10 48 4 81 8 96 13 48 2 -21 8 -38 14 -38z m108 25 c0 -5 -4 -3 -9 5
-5 8 -9 22 -9 30 0 16 17 -16 18 -35z m-92 3 c-3 -8 -6 -5 -6 6 -1 11 2 17 5
13 3 -3 4 -12 1 -19z m39 -71 c1 -58 0 -59 -9 -24 -5 20 -13 37 -18 37 -5 0
-9 7 -9 16 0 8 4 13 9 10 5 -3 11 1 15 9 9 25 11 18 12 -48z m133 56 c0 -5 -4
-17 -9 -28 -8 -18 -9 -17 -9 8 -1 15 4 27 9 27 6 0 10 -3 9 -7z m78 -100 c-2
-21 -4 -4 -4 37 0 41 2 58 4 38 2 -21 2 -55 0 -75z m363 42 c0 -5 -4 -4 -9 3
-4 8 -12 13 -17 13 -5 -1 -10 11 -12 26 l-3 28 20 -30 c12 -16 21 -34 21 -40z
m-115 35 c3 -5 1 -10 -4 -10 -6 0 -11 5 -11 10 0 6 2 10 4 10 3 0 8 -4 11 -10z
m-415 -16 c0 -8 -5 -12 -10 -9 -6 4 -8 11 -5 16 9 14 15 11 15 -7z m460 -10
c0 -8 -5 -12 -10 -9 -6 4 -8 11 -5 16 9 14 15 11 15 -7z m-37 -25 c-8 -8 -13
-7 -18 2 -5 8 -4 10 3 5 7 -4 12 -2 12 5 0 7 3 9 7 6 4 -4 2 -12 -4 -18z
m-303 -9 c0 -5 -2 -10 -4 -10 -3 0 -8 5 -11 10 -3 6 -1 10 4 10 6 0 11 -4 11
-10z m230 -11 c0 -6 -4 -7 -10 -4 -5 3 -10 11 -10 16 0 6 5 7 10 4 6 -3 10
-11 10 -16z m110 -14 c0 -5 -5 -3 -10 5 -5 8 -10 20 -10 25 0 6 5 3 10 -5 5
-8 10 -19 10 -25z m-133 -17 c-3 -8 -6 -5 -6 6 -1 11 2 17 5 13 3 -3 4 -12 1
-19z m43 -33 c0 -5 -5 -3 -10 5 -5 8 -10 20 -10 25 0 6 5 3 10 -5 5 -8 10 -19
10 -25z m-553 -30 c-6 -19 -12 -33 -15 -30 -8 8 9 76 18 70 4 -3 3 -21 -3 -40z
m-30 -37 c-3 -8 -6 -5 -6 6 -1 11 2 17 5 13 3 -3 4 -12 1 -19z m114 -56 c-6
-2 -11 -10 -11 -18 0 -8 -4 -14 -10 -14 -5 0 -10 7 -10 15 0 8 5 15 10 15 6 0
10 7 10 16 0 8 -4 12 -10 9 -5 -3 -10 0 -10 8 0 27 13 26 27 0 9 -18 11 -29 4
-31z m-1181 8 c0 -5 -7 -10 -15 -10 -8 0 -15 5 -15 10 0 6 7 10 15 10 8 0 15
-4 15 -10z m-1637 -620 c6 0 1 -7 -12 -16 -15 -11 -26 -13 -33 -6 -14 14 0 35
19 28 8 -3 20 -6 26 -6z m373 -18 c8 -5 5 -13 -7 -26 -19 -19 -19 -19 -19 7 0
28 6 32 26 19z m-2606 -137 c0 -8 -9 -15 -20 -15 -25 0 -26 17 -2 23 9 3 18 5
20 6 1 0 2 -6 2 -14z m1458 -7 c8 -8 9 -15 1 -25 -16 -19 -29 -16 -29 6 0 11
-6 22 -12 24 -7 3 -4 6 8 6 11 1 25 -4 32 -11z m413 -24 c10 -12 10 -20 1 -35
-7 -10 -12 -26 -12 -34 0 -8 -4 -15 -10 -15 -5 0 -7 7 -4 15 4 9 0 15 -10 15
-12 0 -16 10 -16 35 0 28 4 35 19 35 10 0 24 -7 32 -16z m329 6 c12 -8 11 -10
-7 -10 -12 0 -25 5 -28 10 -8 13 15 13 35 0z m380 -30 c-19 -12 -35 3 -26 26
6 17 8 17 24 0 15 -15 15 -18 2 -26z m-315 -20 c0 -38 -39 -35 -43 3 -3 25 0
28 20 25 17 -2 23 -9 23 -28z m-2577 -166 c4 -29 -23 -51 -43 -34 -16 13 -20
42 -8 54 14 14 48 1 51 -20z m1717 16 c-3 -5 -11 -10 -16 -10 -6 0 -7 5 -4 10
3 6 11 10 16 10 6 0 7 -4 4 -10z m435 -25 c0 -20 -6 -35 -15 -39 -9 -3 -21
-19 -26 -36 -11 -30 -23 -38 -33 -21 -4 5 0 11 6 14 10 3 10 7 -1 20 -11 14
-11 22 0 49 15 38 21 43 49 45 16 1 20 -4 20 -32z m-660 -12 c0 -31 -9 -47
-27 -50 -9 -2 -13 10 -13 37 0 33 3 40 20 40 15 0 20 -7 20 -27z m1054 11 c9
-3 16 -17 16 -29 0 -30 -34 -43 -55 -21 -18 18 -19 28 -3 44 14 14 20 14 42 6z
m486 -1 c0 -5 -7 -17 -15 -27 -15 -20 -15 -20 -15 0 0 12 3 24 7 27 9 9 23 9
23 0z m-1110 -35 c0 -15 -4 -28 -10 -28 -5 0 -10 -7 -10 -15 0 -8 -4 -15 -9
-15 -15 0 -30 -134 -18 -160 12 -25 -28 -44 -62 -29 l-28 13 23 25 c13 14 24
36 24 49 0 13 4 20 10 17 6 -4 10 7 10 25 0 18 4 29 10 25 7 -4 9 15 6 54 -4
50 -2 60 12 63 35 8 42 4 42 -24z m-1510 7 c0 -8 -9 -15 -20 -15 -22 0 -27 15
-7 23 21 9 27 7 27 -8z m428 -18 c17 -20 -2 -39 -33 -35 -36 4 -42 21 -13 36
30 14 34 14 46 -1z m-1118 -58 c0 -10 -27 -19 -34 -12 -12 12 -5 22 14 20 11
-1 20 -4 20 -8z m3356 -167 c19 -11 19 -11 -1 -12 -11 0 -37 -3 -57 -6 -34 -6
-38 -4 -38 14 0 18 5 20 38 18 21 -2 47 -8 58 -14z m-1971 -21 c0 -31 -28 -50
-52 -35 -41 25 -22 67 27 62 19 -2 25 -9 25 -27z m1425 -33 c0 -5 -13 -8 -30
-8 -16 0 -30 4 -30 10 0 5 13 8 30 7 16 -1 30 -5 30 -9z m45 -8 c-21 -8 -35
-4 -35 9 0 5 12 6 27 3 24 -5 25 -6 8 -12z m88 3 c-13 -2 -33 -2 -45 0 -13 2
-3 4 22 4 25 0 35 -2 23 -4z m-87 -72 c-13 -20 -26 -11 -26 16 0 25 1 26 16
11 9 -9 13 -21 10 -27z m-1348 -21 c62 -7 112 -17 112 -23 0 -14 -286 -2 -325
14 l-30 12 29 6 c38 8 76 6 214 -9z m906 3 c-5 -5 -12 -12 -16 -18 -4 -6 -8
-2 -8 8 0 9 7 17 17 17 9 0 12 -3 7 -7z m-400 -44 c16 -15 5 -17 -86 -22 -87
-4 -108 2 -108 31 0 12 16 13 93 7 50 -3 96 -11 101 -16z m1272 -38 c-10 -16
-36 -13 -36 3 0 17 21 27 34 16 4 -5 5 -13 2 -19z m-446 -31 c0 -19 -20 -27
-33 -13 -8 7 11 33 24 33 5 0 9 -9 9 -20z m-2445 -70 c-5 -8 -11 -8 -17 -2 -6
6 -7 16 -3 22 5 8 11 8 17 2 6 -6 7 -16 3 -22z m-65 -140 c0 -11 -7 -20 -15
-20 -8 0 -15 9 -15 20 0 11 7 20 15 20 8 0 15 -9 15 -20z m-230 -370 c0 -5 -4
-10 -10 -10 -5 0 -10 5 -10 10 0 6 5 10 10 10 6 0 10 -4 10 -10z m-76 -155
c-4 -8 -8 -15 -10 -15 -2 0 -4 7 -4 15 0 8 4 15 10 15 5 0 7 -7 4 -15z m-54
-90 c0 -10 -10 -15 -30 -15 -20 0 -30 5 -30 15 0 10 10 15 30 15 20 0 30 -5
30 -15z m-294 -336 c-8 -53 -19 -54 -29 -1 -6 28 -4 32 14 32 17 0 19 -5 15
-31z m24 -329 c0 -29 -4 -40 -15 -40 -17 0 -20 16 -5 25 6 3 10 17 10 31 0 13
2 24 5 24 3 0 5 -18 5 -40z m-330 -22 c0 -18 -2 -20 -9 -8 -6 8 -7 18 -5 22 9
14 14 9 14 -14z m-30 -28 c0 -5 -7 -10 -15 -10 -8 0 -15 5 -15 10 0 6 7 10 15
10 8 0 15 -4 15 -10z m-100 -60 c0 -5 -4 -10 -8 -10 -5 0 -14 -10 -20 -22 -10
-22 -11 -22 -11 -2 -1 20 16 44 31 44 4 0 8 -4 8 -10z m30 -20 c0 -5 -4 -10
-10 -10 -5 0 -10 5 -10 10 0 6 5 10 10 10 6 0 10 -4 10 -10z m-50 -92 c0 -5
-9 -4 -20 2 -11 6 -20 12 -20 14 0 2 9 2 20 -1 11 -3 20 -9 20 -15z m-166
-194 c3 -8 2 -12 -4 -9 -6 3 -10 10 -10 16 0 14 7 11 14 -7z"/>
<path d="M4284 9178 c-11 -18 43 -88 67 -88 34 0 59 88 26 91 -46 4 -90 3 -93
-3z"/>
<path d="M4400 9170 c0 -13 5 -18 15 -14 8 4 15 10 15 14 0 4 -7 10 -15 14
-10 4 -15 -1 -15 -14z"/>
<path d="M4500 9161 c0 -5 6 -11 13 -14 18 -6 48 4 41 14 -7 12 -54 12 -54 0z"/>
<path d="M4592 9161 c-17 -10 16 -21 65 -21 37 0 63 -9 63 -21 0 -15 47 -59
63 -59 9 0 24 12 34 28 10 15 21 30 26 33 30 22 -92 53 -148 38 -26 -8 -41 -7
-48 0 -13 13 -37 14 -55 2z m158 -21 c0 -5 -4 -10 -10 -10 -5 0 -10 5 -10 10
0 6 5 10 10 10 6 0 10 -4 10 -10z"/>
<path d="M4940 9141 c0 -6 5 -13 10 -16 6 -3 10 1 10 9 0 9 -4 16 -10 16 -5 0
-10 -4 -10 -9z"/>
<path d="M5499 9103 c-33 -5 -44 -39 -23 -70 22 -35 58 -30 83 12 11 19 26 35
33 35 6 0 3 7 -8 15 -19 14 -35 16 -85 8z"/>
<path d="M5629 9087 c15 -15 131 -16 131 -2 0 6 -30 11 -71 12 -54 1 -69 -1
-60 -10z"/>
<path d="M3560 8914 c0 -14 3 -14 15 -4 8 7 15 14 15 16 0 2 -7 4 -15 4 -8 0
-15 -7 -15 -16z"/>
<path d="M3520 8600 c0 -5 9 -10 20 -10 11 0 20 5 20 10 0 6 -9 10 -20 10 -11
0 -20 -4 -20 -10z"/>
<path d="M4460 7836 c0 -2 7 -6 15 -10 8 -3 15 -1 15 4 0 6 -7 10 -15 10 -8 0
-15 -2 -15 -4z"/>
<path d="M4560 7777 c0 -10 8 -17 18 -17 9 0 13 4 7 8 -5 4 -13 11 -17 16 -5
5 -8 2 -8 -7z"/>
<path d="M4756 7771 c-3 -5 1 -11 9 -15 8 -3 15 -1 15 4 0 13 -18 22 -24 11z"/>
<path d="M4564 7668 c9 -45 23 -57 32 -24 4 16 1 32 -6 41 -21 25 -33 17 -26
-17z"/>
<path d="M8229 5519 c-11 -7 -12 -10 -1 -21 9 -8 12 -9 10 -1 -2 6 1 10 7 10
5 -1 9 -7 7 -13 -4 -19 27 -39 40 -26 9 9 9 12 -1 12 -7 0 -9 5 -6 10 3 6 1
10 -5 10 -7 0 -9 -7 -5 -17 5 -14 4 -15 -6 -6 -9 9 -9 15 0 26 9 12 8 16 -8
20 -10 2 -25 1 -32 -4z"/>
<path d="M7555 9594 c-35 -9 -48 -14 -44 -19 7 -7 191 -47 234 -50 22 -2 99
-9 170 -16 158 -15 182 -15 220 1 17 7 34 12 39 11 15 -4 26 23 14 36 -8 10
-6 13 6 13 9 0 16 -5 16 -11 0 -6 7 -17 15 -25 13 -14 15 -14 15 -1 0 10 7 13
20 10 24 -6 26 6 6 33 -14 18 -30 19 -353 21 -186 1 -347 -1 -358 -3z"/>
<path d="M9316 9593 c-1 -2 -111 -3 -244 -4 -147 0 -240 -4 -237 -10 7 -10 -8
-12 -18 -2 -13 12 -271 7 -275 -5 -2 -7 -18 -12 -35 -11 -27 0 -29 2 -12 8 14
6 -1 10 -50 13 -92 5 -120 -8 -37 -18 63 -7 69 -24 10 -24 -15 0 -30 -4 -33
-10 -10 -16 -22 -12 -28 10 -3 14 -14 20 -32 20 -22 0 -25 -3 -20 -20 4 -13 2
-20 -7 -21 -7 -1 5 -5 27 -9 57 -10 68 -14 82 -27 7 -6 32 -14 56 -17 161 -19
270 -28 467 -37 124 -6 241 -12 260 -14 19 -2 118 -4 220 -5 l185 -2 3 97 3
96 -141 -2 c-78 -2 -142 -5 -144 -6z m-663 -30 c-7 -2 -19 -2 -25 0 -7 3 -2 5
12 5 14 0 19 -2 13 -5z m-318 -33 c3 -5 1 -10 -4 -10 -6 0 -11 5 -11 10 0 6 2
10 4 10 3 0 8 -4 11 -10z"/>
<path d="M9585 9210 c3 -5 8 -10 11 -10 2 0 4 5 4 10 0 6 -5 10 -11 10 -5 0
-7 -4 -4 -10z"/>
<path d="M7580 9069 c0 -5 17 -9 37 -9 20 0 33 3 30 6 -10 11 -67 13 -67 3z"/>
<path d="M8307 7025 c-4 -8 -2 -17 3 -20 6 -4 10 3 10 14 0 25 -6 27 -13 6z"/>
<path d="M8560 6739 c0 -5 5 -7 10 -4 6 3 10 8 10 11 0 2 -4 4 -10 4 -5 0 -10
-5 -10 -11z"/>
<path d="M8440 6695 c0 -27 1 -28 23 -19 18 7 10 44 -9 44 -8 0 -14 -10 -14
-25z"/>
<path d="M7510 6428 c0 -9 -6 -19 -12 -21 -10 -4 -10 -6 0 -6 14 -1 28 26 18
36 -3 4 -6 -1 -6 -9z"/>
<path d="M7600 6389 c0 -5 5 -7 10 -4 6 3 10 8 10 11 0 2 -4 4 -10 4 -5 0 -10
-5 -10 -11z"/>
<path d="M7721 6384 c0 -11 3 -14 6 -6 3 7 2 16 -1 19 -3 4 -6 -2 -5 -13z"/>
<path d="M8595 6351 c-3 -6 3 -15 14 -20 24 -14 31 -14 31 -1 0 14 -38 32 -45
21z"/>
<path d="M8870 6240 c-13 -8 -12 -10 3 -10 9 0 17 5 17 10 0 12 -1 12 -20 0z"/>
<path d="M8908 6233 c7 -3 16 -2 19 1 4 3 -2 6 -13 5 -11 0 -14 -3 -6 -6z"/>
<path d="M7337 6223 c-13 -12 -7 -43 8 -43 8 0 15 6 15 13 0 18 -15 38 -23 30z"/>
<path d="M7385 6190 c-3 -5 1 -10 9 -10 9 0 16 5 16 10 0 6 -4 10 -9 10 -6 0
-13 -4 -16 -10z"/>
<path d="M9095 6190 c-3 -5 1 -10 9 -10 9 0 16 5 16 10 0 6 -4 10 -9 10 -6 0
-13 -4 -16 -10z"/>
<path d="M9227 6173 c-3 -4 1 -14 9 -20 7 -7 15 -9 18 -4 3 5 -1 14 -8 20 -8
7 -16 8 -19 4z"/>
<path d="M7050 6105 c0 -9 5 -15 11 -13 6 2 11 8 11 13 0 5 -5 11 -11 13 -6 2
-11 -4 -11 -13z"/>
<path d="M9285 6100 c-8 -13 5 -13 25 0 13 8 13 10 -2 10 -9 0 -20 -4 -23 -10z"/>
<path d="M6508 6003 c7 -3 16 -2 19 1 4 3 -2 6 -13 5 -11 0 -14 -3 -6 -6z"/>
<path d="M7250 5999 c0 -6 -6 -9 -14 -6 -18 7 -46 -23 -46 -50 0 -24 45 -69
55 -54 3 6 13 11 22 11 9 0 25 10 37 23 20 21 22 40 10 77 -4 13 -6 13 -14 0
-8 -12 -13 -13 -30 -2 -14 8 -20 9 -20 1z"/>
<path d="M7370 5985 c0 -8 2 -15 4 -15 2 0 6 7 10 15 3 8 1 15 -4 15 -6 0 -10
-7 -10 -15z"/>
<path d="M7000 5920 c0 -5 5 -10 11 -10 5 0 7 5 4 10 -3 6 -8 10 -11 10 -2 0
-4 -4 -4 -10z"/>
<path d="M7141 5904 c0 -11 3 -14 6 -6 3 7 2 16 -1 19 -3 4 -6 -2 -5 -13z"/>
<path d="M6545 5890 c-17 -7 -17 -9 -2 -9 10 -1 17 -9 17 -21 0 -21 24 -27 36
-9 11 18 -28 48 -51 39z"/>
<path d="M7020 5835 c0 -9 5 -15 11 -13 6 2 11 8 11 13 0 5 -5 11 -11 13 -6 2
-11 -4 -11 -13z"/>
<path d="M7155 5829 c-4 -6 -13 -8 -21 -5 -8 3 -14 -1 -14 -9 0 -8 -4 -15 -10
-15 -5 0 -10 7 -10 17 0 15 -2 14 -20 -2 -10 -9 -31 -17 -45 -17 -14 0 -28 -4
-31 -9 -8 -14 19 -48 41 -51 11 -2 18 -6 15 -9 -7 -8 21 -40 30 -34 5 3 6 13
3 24 -2 10 3 25 11 34 9 8 16 21 16 27 0 6 14 13 30 17 21 4 30 11 30 24 0 21
-15 25 -25 8z"/>
<path d="M6615 5810 c3 -5 8 -10 11 -10 2 0 4 5 4 10 0 6 -5 10 -11 10 -5 0
-7 -4 -4 -10z"/>
<path d="M6890 5780 c13 -23 20 -26 20 -6 0 8 -7 16 -15 20 -13 4 -14 2 -5
-14z"/>
<path d="M6957 5761 c-3 -11 -17 -25 -31 -31 -14 -5 -26 -14 -26 -20 0 -12 30
-13 45 -2 19 13 33 49 25 61 -5 9 -9 7 -13 -8z"/>
<path d="M9568 5723 c7 -3 16 -2 19 1 4 3 -2 6 -13 5 -11 0 -14 -3 -6 -6z"/>
<path d="M7086 5573 c-11 -11 -6 -23 9 -23 8 0 15 4 15 9 0 13 -16 22 -24 14z"/>
<path d="M7025 5560 c-3 -5 -1 -10 4 -10 6 0 11 5 11 10 0 6 -2 10 -4 10 -3 0
-8 -4 -11 -10z"/>
<path d="M6975 5540 c-3 -5 2 -10 12 -11 16 0 16 -1 -1 -8 -14 -5 -16 -10 -7
-15 16 -10 41 12 34 30 -6 16 -29 19 -38 4z"/>
<path d="M7682 5400 c0 -14 2 -19 5 -12 2 6 2 18 0 25 -3 6 -5 1 -5 -13z"/>
<path d="M7831 5384 c0 -11 3 -14 6 -6 3 7 2 16 -1 19 -3 4 -6 -2 -5 -13z"/>
<path d="M7810 5362 c0 -12 19 -26 26 -19 2 2 -2 10 -11 17 -9 8 -15 8 -15 2z"/>
<path d="M7855 5361 c-3 -5 -2 -12 3 -15 5 -3 9 1 9 9 0 17 -3 19 -12 6z"/>
<path d="M7783 5344 c3 -11 8 -40 12 -67 4 -29 10 -45 17 -41 7 4 8 -7 3 -35
-4 -27 -3 -41 4 -41 6 0 11 6 11 14 0 21 28 28 33 8 3 -9 5 4 6 31 1 32 5 46
14 45 7 -2 13 11 15 36 4 50 -13 69 -22 24 -7 -31 -8 -32 -16 -10 -12 28 -21
28 -38 1 -7 -12 -16 -18 -19 -15 -3 3 0 13 8 23 9 11 10 14 2 9 -8 -4 -13 -2
-13 8 0 8 -5 18 -11 22 -7 4 -9 0 -6 -12z m67 -50 c0 -8 -5 -12 -10 -9 -6 4
-8 11 -5 16 9 14 15 11 15 -7z"/>
<path d="M7912 5270 c0 -19 2 -27 5 -17 2 9 2 25 0 35 -3 9 -5 1 -5 -18z"/>
<path d="M7953 5220 c0 -30 2 -43 4 -27 2 15 2 39 0 55 -2 15 -4 2 -4 -28z"/>
<path d="M7931 5234 c0 -11 3 -14 6 -6 3 7 2 16 -1 19 -3 4 -6 -2 -5 -13z"/>
<path d="M7891 5224 c0 -11 3 -14 6 -6 3 7 2 16 -1 19 -3 4 -6 -2 -5 -13z"/>
<path d="M7365 5191 c-3 -5 -1 -12 5 -16 5 -3 10 -2 10 4 0 5 8 12 18 14 13 4
12 5 -5 6 -12 0 -24 -3 -28 -8z"/>
<path d="M7903 5177 c-6 -13 -8 -30 -3 -37 5 -8 10 -2 15 19 9 40 2 49 -12 18z"/>
<path d="M7922 5119 c-7 -36 -12 -79 -12 -96 0 -38 19 -95 30 -88 5 3 11 -3
13 -12 4 -15 5 -15 6 2 1 17 3 18 11 5 7 -10 9 3 6 45 -4 43 -2 54 5 40 7 -15
8 -10 3 20 -3 22 -9 44 -14 49 -5 5 -6 0 -3 -12 3 -12 2 -30 -3 -39 -5 -12
-11 10 -19 67 l-11 85 -12 -66z m18 -96 c0 -41 -3 -54 -10 -43 -12 18 -10 100
2 100 4 0 8 -26 8 -57z m24 -53 c-5 -5 -10 3 -11 18 -1 22 0 24 9 8 6 -10 6
-22 2 -26z"/>
<path d="M7727 5133 c-4 -3 -7 -11 -7 -17 0 -6 5 -5 12 2 6 6 9 14 7 17 -3 3
-9 2 -12 -2z"/>
<path d="M7857 5133 c-4 -3 -7 -11 -7 -17 0 -6 5 -5 12 2 6 6 9 14 7 17 -3 3
-9 2 -12 -2z"/>
<path d="M7055 5120 c-3 -5 -1 -10 4 -10 6 0 11 5 11 10 0 6 -2 10 -4 10 -3 0
-8 -4 -11 -10z"/>
<path d="M7887 5083 c-11 -10 -8 -123 3 -123 6 0 10 28 10 65 0 65 -1 71 -13
58z"/>
<path d="M9568 4993 c7 -3 16 -2 19 1 4 3 -2 6 -13 5 -11 0 -14 -3 -6 -6z"/>
<path d="M9490 4946 c0 -7 9 -16 20 -19 24 -6 28 18 4 27 -22 8 -24 8 -24 -8z"/>
<path d="M9080 4928 c0 -20 5 -28 18 -28 14 0 15 2 2 10 -13 8 -13 10 2 10 9
0 20 5 24 12 5 8 2 9 -11 4 -11 -4 -22 -2 -27 6 -5 9 -8 4 -8 -14z"/>
<path d="M8988 4923 c12 -2 30 -2 40 0 9 3 -1 5 -23 4 -22 0 -30 -2 -17 -4z"/>
<path d="M9226 4922 c15 -14 94 -36 101 -29 3 4 -10 14 -30 22 -39 16 -88 21
-71 7z"/>
<path d="M7918 4903 c-3 -13 -2 -26 4 -29 14 -9 16 -2 8 26 -6 25 -6 25 -12 3z"/>
<path d="M9363 4873 c9 -9 20 -13 24 -9 4 4 1 11 -7 16 -25 16 -35 11 -17 -7z"/>
<path d="M9453 4864 c34 -29 73 -35 41 -6 -11 10 -31 21 -44 25 l-25 6 28 -25z"/>
<path d="M7916 4824 c-9 -24 -7 -28 9 -14 17 14 20 30 6 30 -5 0 -12 -7 -15
-16z"/>
<path d="M8770 4820 c0 -5 5 -10 10 -10 6 0 10 5 10 10 0 6 -4 10 -10 10 -5 0
-10 -4 -10 -10z"/>
<path d="M6796 4795 c-9 -26 -7 -32 5 -12 6 10 9 21 6 23 -2 3 -7 -2 -11 -11z"/>
<path d="M8650 4796 c0 -8 5 -18 10 -21 6 -3 10 3 10 14 0 12 -4 21 -10 21 -5
0 -10 -6 -10 -14z"/>
<path d="M7900 4749 c0 -11 5 -17 10 -14 6 3 10 13 10 21 0 8 -4 14 -10 14 -5
0 -10 -9 -10 -21z"/>
<path d="M6584 4745 c-18 -15 -18 -15 5 -13 14 2 26 9 29 16 5 17 -10 15 -34
-3z"/>
<path d="M7816 4705 c-10 -27 -7 -33 14 -28 12 3 20 12 18 21 -4 22 -24 26
-32 7z"/>
<path d="M6592 4683 c-13 -26 10 -88 33 -88 10 0 23 9 29 20 6 11 19 26 29 33
9 7 17 21 17 30 0 12 -3 13 -12 4 -17 -17 -39 -15 -32 3 9 23 -53 20 -64 -2z
m38 -38 c0 -8 -4 -15 -9 -15 -13 0 -22 16 -14 24 11 11 23 6 23 -9z"/>
<path d="M7951 4665 c0 -11 -4 -31 -7 -45 -5 -19 -4 -22 5 -14 7 6 11 26 8 45
-2 19 -5 25 -6 14z"/>
<path d="M7780 4659 c0 -5 5 -7 10 -4 6 3 10 8 10 11 0 2 -4 4 -10 4 -5 0 -10
-5 -10 -11z"/>
<path d="M7998 4641 c-23 -23 -22 -26 2 -28 15 -1 20 4 20 23 0 28 0 28 -22 5z"/>
<path d="M6766 4603 c-3 -4 -13 -8 -20 -9 -17 -2 -56 -36 -56 -48 0 -5 8 -2
18 6 9 9 23 13 31 10 8 -2 11 0 7 6 -3 6 7 13 24 17 16 4 30 11 30 16 0 11
-24 12 -34 2z"/>
<path d="M6647 4514 c-8 -8 1 -24 13 -24 4 0 10 7 14 15 5 15 -14 21 -27 9z"/>
<path d="M6760 4500 c0 -5 5 -10 11 -10 5 0 7 5 4 10 -3 6 -8 10 -11 10 -2 0
-4 -4 -4 -10z"/>
<path d="M6701 4469 c-13 -11 -31 -19 -41 -19 -21 0 -33 -45 -15 -60 9 -7 20
-4 38 10 14 11 34 20 45 20 17 0 52 28 52 42 0 3 -13 10 -28 16 -22 8 -33 6
-51 -9z"/>
<path d="M6618 4473 c6 -2 18 -2 25 0 6 3 1 5 -13 5 -14 0 -19 -2 -12 -5z"/>
<path d="M9529 4369 c-13 -10 -29 -19 -36 -19 -6 0 -15 -9 -18 -20 -4 -11 -12
-20 -18 -19 -7 2 -23 -2 -37 -8 -14 -6 -56 -18 -95 -27 -38 -9 -71 -21 -73
-26 -2 -6 -10 -10 -18 -10 -16 0 -54 -30 -54 -43 0 -15 -44 -67 -56 -67 -7 0
-21 -11 -32 -25 -11 -14 -27 -25 -36 -25 -9 0 -16 -4 -16 -8 0 -4 -41 -50 -91
-102 -94 -98 -179 -208 -179 -233 0 -7 -11 -19 -24 -25 -14 -6 -43 -37 -65
-69 -48 -68 -71 -99 -128 -171 -24 -30 -43 -62 -43 -73 0 -11 -16 -27 -40 -41
-25 -14 -43 -33 -47 -48 -3 -14 -23 -40 -45 -58 -21 -19 -36 -37 -33 -41 2 -5
-25 -16 -62 -25 -84 -20 -96 -29 -80 -63 10 -22 8 -28 -9 -42 -11 -9 -23 -26
-26 -39 -5 -19 -2 -22 20 -22 l27 -1 -30 -27 c-17 -15 -29 -35 -27 -45 2 -9
-1 -17 -7 -17 -23 0 -10 -29 17 -38 l27 -9 -30 -14 c-35 -16 -51 -33 -70 -74
-8 -16 -14 -27 -15 -22 0 8 -40 -30 -40 -38 0 -3 12 -5 26 -5 23 0 90 -40 68
-40 -5 0 -2 -6 7 -13 22 -17 21 -46 -3 -39 -10 2 -18 13 -18 23 0 30 -55 26
-76 -6 -18 -28 -11 -67 11 -59 8 3 14 9 13 12 0 4 0 14 1 22 1 12 3 12 11 -2
13 -21 3 -46 -21 -53 -12 -4 -22 -19 -26 -36 -4 -20 -9 -27 -16 -20 -10 10
-37 4 -37 -10 0 -4 7 -6 15 -3 9 4 15 0 15 -10 0 -9 -8 -16 -20 -16 -23 0 -25
-8 -5 -34 10 -13 11 -25 4 -43 -5 -14 -8 -27 -7 -27 2 -1 14 -7 28 -13 16 -7
19 -12 9 -12 -9 -1 -24 -10 -35 -22 -18 -20 -18 -22 -1 -34 22 -16 22 -27 -3
-58 -20 -26 -20 -77 1 -77 5 0 9 -9 9 -19 0 -23 16 -36 25 -21 3 5 15 10 25
10 10 0 25 7 33 15 13 12 16 12 20 0 6 -15 -3 -24 -48 -45 -49 -24 -76 -55
-71 -82 7 -35 17 -58 27 -58 12 0 12 -37 0 -42 -5 -1 -12 -22 -16 -45 -5 -34
-4 -44 9 -49 13 -5 9 -14 -19 -51 -19 -25 -35 -53 -35 -61 0 -36 25 -83 47
-88 26 -7 30 -19 9 -31 -7 -4 -18 -18 -24 -29 -12 -24 -5 -34 32 -48 19 -7 14
-21 -7 -21 -18 0 -15 -28 3 -31 8 -2 31 -9 50 -16 27 -10 35 -19 35 -38 0 -22
4 -25 38 -24 40 0 44 -5 25 -36 -7 -10 -10 -21 -7 -24 5 -6 117 27 146 43 10
5 26 12 36 15 9 3 17 15 17 27 0 15 5 19 15 15 10 -3 15 1 15 12 0 13 18 25
65 41 36 13 86 37 111 54 39 25 44 32 31 41 -8 7 -16 20 -18 31 -3 15 -14 21
-41 23 -33 3 -65 32 -34 32 15 0 46 32 46 47 0 6 -15 14 -32 18 -31 8 -31 8
-8 12 14 2 46 13 72 25 45 20 47 23 50 67 2 30 7 45 16 43 6 -1 12 4 12 11 0
19 43 37 88 37 20 0 46 7 56 15 22 16 56 20 56 7 0 -17 -36 -40 -74 -46 -43
-8 -71 -30 -63 -49 7 -20 141 -11 207 13 30 11 75 20 100 20 41 0 55 7 131 64
46 35 94 78 107 95 13 18 27 29 33 26 5 -4 9 9 9 27 0 32 3 35 45 46 28 7 45
18 45 27 0 10 11 16 33 17 17 1 40 2 49 2 10 1 24 10 31 20 11 15 17 16 35 7
33 -17 42 -14 58 24 12 29 14 191 14 1089 l0 1054 -24 4 c-14 3 -34 -3 -47
-13z m-739 -758 c0 -5 -7 -11 -14 -14 -10 -4 -13 -1 -9 9 6 15 23 19 23 5z
m115 -11 c-3 -5 -11 -10 -16 -10 -6 0 -7 5 -4 10 3 6 11 10 16 10 6 0 7 -4 4
-10z m-75 -4 c0 -2 -7 -9 -15 -16 -12 -10 -15 -10 -15 4 0 9 7 16 15 16 8 0
15 -2 15 -4z m210 -146 c0 -5 -5 -10 -11 -10 -5 0 -7 5 -4 10 3 6 8 10 11 10
2 0 4 -4 4 -10z m240 -110 c0 -5 -4 -10 -9 -10 -6 0 -13 5 -16 10 -3 6 1 10 9
10 9 0 16 -4 16 -10z m110 -159 c0 -4 -21 -8 -47 -8 -40 -1 -45 1 -31 11 17
13 78 10 78 -3z m-850 -199 c0 -4 -5 -13 -12 -20 -9 -9 -7 -12 10 -12 18 0 21
-5 18 -37 -2 -27 -10 -41 -25 -49 -11 -6 -29 -18 -38 -26 -10 -8 -26 -18 -36
-21 -9 -4 -16 -12 -15 -19 2 -7 -7 -17 -19 -22 -17 -8 -22 -18 -21 -41 1 -16
7 -33 13 -37 19 -14 -16 -27 -42 -15 -23 10 -24 11 -4 21 16 9 18 15 9 30 -8
15 -7 22 3 30 8 6 22 23 32 39 10 15 26 27 37 27 13 0 17 5 14 14 -3 8 4 24
16 36 26 26 13 53 -14 31 -17 -15 -36 -7 -36 15 0 8 4 13 9 10 4 -3 16 3 26
14 10 11 26 20 37 20 10 0 18 5 18 10 0 6 5 10 10 10 6 0 10 -4 10 -8z m-340
-27 c-7 -8 -17 -12 -23 -8 -6 4 -3 9 9 14 27 11 28 11 14 -6z m1042 -217 c-7
-7 -12 -8 -12 -2 0 14 12 26 19 19 2 -3 -1 -11 -7 -17z m-932 -62 c0 -3 -4 -8
-10 -11 -5 -3 -10 -1 -10 4 0 6 5 11 10 11 6 0 10 -2 10 -4z m90 -135 c0 -10
-30 -24 -37 -17 -3 3 -2 9 2 15 8 13 35 15 35 2z m-280 -29 c0 -4 -9 -8 -20
-8 -11 0 -20 4 -20 8 0 4 9 8 20 8 11 0 20 -4 20 -8z m258 -24 c-3 -7 -13 -15
-24 -17 -16 -3 -17 -1 -5 13 16 19 34 21 29 4z m536 -37 c8 -13 52 -19 69 -9
21 11 32 -9 16 -28 -6 -8 -19 -14 -28 -13 -32 3 -41 -1 -41 -21 0 -24 -25 -27
-34 -3 -6 15 -8 15 -16 3 -8 -12 -10 -12 -10 -1 0 11 -3 11 -15 1 -10 -9 -15
-9 -16 -1 -1 6 -2 17 -3 24 -5 30 63 72 78 48z m-834 -81 c0 -5 -5 -10 -11
-10 -5 0 -7 5 -4 10 3 6 8 10 11 10 2 0 4 -4 4 -10z m261 -23 c-8 -8 -11 -7
-11 4 0 20 13 34 18 19 3 -7 -1 -17 -7 -23z m489 -55 c0 -4 -9 -15 -20 -25
-11 -9 -20 -22 -20 -29 -1 -20 -45 -48 -60 -38 -10 6 -8 13 9 31 11 12 21 29
21 36 0 8 10 18 23 23 28 11 47 12 47 2z m-644 -108 c-24 -17 -49 -18 -44 -2
5 13 49 28 58 21 3 -3 -4 -11 -14 -19z m-49 -30 c-3 -3 -12 -4 -19 -1 -8 3 -5
6 6 6 11 1 17 -2 13 -5z m418 -344 c3 -5 -3 -10 -15 -10 -12 0 -18 5 -15 10 3
6 10 10 15 10 5 0 12 -4 15 -10z"/>
<path d="M2320 2255 c0 -8 5 -15 10 -15 6 0 10 7 10 15 0 8 -4 15 -10 15 -5 0
-10 -7 -10 -15z"/>
<path d="M6830 1605 c1 -26 2 -28 11 -12 8 14 8 22 0 30 -8 8 -11 3 -11 -18z"/>
<path d="M1600 1610 c0 -5 5 -10 11 -10 5 0 7 5 4 10 -3 6 -8 10 -11 10 -2 0
-4 -4 -4 -10z"/>
<path d="M1495 1600 c-3 -6 1 -7 9 -4 18 7 21 14 7 14 -6 0 -13 -4 -16 -10z"/>
<path d="M8610 1600 c-13 -8 -13 -10 2 -10 9 0 20 5 23 10 8 13 -5 13 -25 0z"/>
<path d="M1598 1553 c7 -3 16 -2 19 1 4 3 -2 6 -13 5 -11 0 -14 -3 -6 -6z"/>
<path d="M1518 1533 c7 -3 16 -2 19 1 4 3 -2 6 -13 5 -11 0 -14 -3 -6 -6z"/>
<path d="M1560 1520 c8 -5 20 -10 25 -10 6 0 3 5 -5 10 -8 5 -19 10 -25 10 -5
0 -3 -5 5 -10z"/>
<path d="M2175 1510 c4 -6 11 -8 16 -5 14 9 11 15 -7 15 -8 0 -12 -5 -9 -10z"/>
<path d="M2186 1443 c-6 -14 -5 -15 5 -6 7 7 10 15 7 18 -3 3 -9 -2 -12 -12z"/>
<path d="M1420 1446 c0 -2 7 -7 16 -10 8 -3 12 -2 9 4 -6 10 -25 14 -25 6z"/>
<path d="M1358 1433 c6 -2 18 -2 25 0 6 3 1 5 -13 5 -14 0 -19 -2 -12 -5z"/>
<path d="M4156 1413 c-6 -14 -5 -15 5 -6 7 7 10 15 7 18 -3 3 -9 -2 -12 -12z"/>
<path d="M7997 1401 c3 -12 9 -21 14 -21 14 0 11 16 -5 29 -12 10 -13 8 -9 -8z"/>
<path d="M1415 1350 c-3 -5 -1 -10 4 -10 6 0 11 5 11 10 0 6 -2 10 -4 10 -3 0
-8 -4 -11 -10z"/>
<path d="M1383 1323 c-13 -2 -23 -11 -23 -19 0 -8 -5 -14 -12 -14 -6 0 -8 -3
-4 -7 4 -5 13 -1 19 7 7 9 23 21 37 27 26 12 21 13 -17 6z"/>
<path d="M1426 1315 c-3 -8 -1 -15 3 -15 5 0 11 7 15 15 3 8 1 15 -3 15 -5 0
-11 -7 -15 -15z"/>
<path d="M2000 1310 c0 -5 5 -10 10 -10 6 0 10 5 10 10 0 6 -4 10 -10 10 -5 0
-10 -4 -10 -10z"/>
<path d="M1273 1233 c-7 -2 -13 -11 -13 -19 0 -10 -13 -14 -46 -14 -42 0 -45
-2 -33 -16 8 -10 15 -12 17 -5 6 17 22 13 58 -14 18 -14 39 -25 47 -25 9 0 17
-4 19 -9 2 -5 20 -11 42 -12 36 -4 39 -2 41 26 4 43 9 59 20 67 17 13 -14 9
-43 -4 -15 -7 -43 -13 -62 -13 -30 0 -35 3 -34 23 0 12 0 22 0 21 -1 0 -7 -3
-13 -6z"/>
<path d="M4085 1139 c-4 -6 -5 -12 -2 -15 2 -3 7 2 10 11 7 17 1 20 -8 4z"/>
<path d="M1630 1090 c8 -5 20 -10 25 -10 6 0 3 5 -5 10 -8 5 -19 10 -25 10 -5
0 -3 -5 5 -10z"/>
<path d="M0 968 c0 -100 9 -117 62 -118 15 0 30 -4 33 -10 3 -5 16 -9 28 -8
42 2 301 -13 310 -19 5 -3 32 -7 61 -9 135 -9 295 -26 336 -35 25 -5 92 -11
150 -13 58 -3 113 -5 123 -5 9 -1 17 -8 17 -16 0 -8 4 -15 10 -15 5 0 9 6 7
13 -2 11 18 12 123 6 8 -1 40 0 71 1 32 2 64 -3 76 -11 16 -10 34 -10 77 -3
40 8 56 7 56 0 0 -6 4 -4 9 4 9 15 -3 218 -13 228 -3 3 -6 1 -6 -5 0 -10 -80
0 -101 12 -5 4 -14 -6 -19 -22 -6 -15 -15 -36 -20 -45 -6 -10 -10 -23 -10 -30
-1 -22 -37 -58 -58 -58 -32 0 -32 21 1 82 17 31 28 60 25 63 -20 20 -217 40
-390 40 -64 0 -88 3 -88 13 0 6 5 12 10 12 6 0 10 5 10 12 0 8 -5 7 -16 -4
-14 -14 -14 -20 0 -68 19 -64 21 -121 4 -138 -17 -17 -89 -15 -126 4 -25 12
-32 22 -32 45 0 35 16 37 62 9 43 -26 48 -25 48 8 -1 28 -28 134 -30 117 -1
-5 -5 -1 -10 10 -8 18 -9 18 -9 2 -1 -14 -6 -17 -23 -11 -13 3 -31 13 -40 21
-15 13 -16 13 -11 -6 3 -12 1 -21 -4 -21 -6 0 -20 -27 -32 -60 -16 -44 -27
-60 -41 -60 -26 0 -34 34 -16 67 8 16 19 43 25 62 l11 34 -22 -19 c-18 -16
-21 -17 -15 -2 4 13 2 15 -11 11 -9 -4 -20 -11 -24 -17 -5 -7 -8 -4 -8 7 0 10
-4 15 -10 12 -13 -8 -100 -13 -100 -5 0 3 -9 6 -21 6 -18 0 -20 -4 -14 -31 16
-75 17 -96 5 -109 -16 -20 -50 0 -50 30 0 33 -30 124 -41 124 -6 0 -8 -3 -6
-7 6 -9 -141 -5 -163 4 -8 4 -50 8 -92 9 l-78 3 0 -91z"/>
<path d="M987 1019 c7 -7 15 -10 18 -7 3 3 -2 9 -12 12 -14 6 -15 5 -6 -5z"/>
<path d="M1612 942 c-6 -2 -12 -10 -12 -18 0 -15 18 -18 36 -6 15 9 -6 30 -24
24z"/>
<path d="M1784 901 c5 -16 9 -89 7 -123 -1 -11 -9 -18 -20 -18 -11 0 -22 -4
-25 -9 -10 -15 63 -10 79 5 8 8 16 10 20 4 7 -12 152 -3 181 12 16 7 27 6 45
-5 13 -8 39 -18 58 -22 31 -7 33 -5 28 14 -4 17 -1 21 18 21 13 0 26 -4 29 -9
3 -5 17 -11 31 -13 22 -5 24 -3 19 21 -4 20 -3 23 5 11 10 -13 11 -13 11 0 0
13 1 13 10 0 7 -11 10 -3 10 30 l0 45 -48 4 c-95 8 -117 7 -117 -9 0 -19 -37
-50 -59 -50 -23 0 -32 29 -17 52 7 11 11 22 8 24 -3 3 -86 13 -245 27 -25 3
-31 0 -28 -12z m370 -92 c3 -3 -5 -5 -19 -5 -13 0 -22 3 -19 7 4 8 30 6 38 -2z
m-343 -42 c-10 -9 -11 -8 -5 6 3 10 9 15 12 12 3 -3 0 -11 -7 -18z"/>
<path d="M1689 876 c-14 -7 -37 -16 -52 -20 -24 -6 -27 -11 -27 -47 0 -35 3
-40 18 -34 9 3 31 9 47 12 44 9 55 21 55 64 0 43 -3 45 -41 25z"/>
<path d="M2378 853 c-19 -5 -25 -43 -8 -43 14 0 12 -27 -2 -33 -8 -3 -6 -6 5
-6 9 -1 17 4 17 10 0 5 5 7 10 4 6 -3 10 -1 10 5 0 6 4 8 10 5 13 -8 60 24 60
41 0 8 -10 14 -22 14 -13 0 -32 2 -43 4 -11 2 -28 2 -37 -1z"/>
<path d="M2552 848 c-7 -7 -12 -20 -12 -31 0 -21 -18 -58 -34 -70 -7 -6 -5 -7
6 -3 9 2 19 0 21 -7 2 -7 2 -2 0 10 -2 17 1 21 12 17 11 -5 13 -2 9 10 -5 14
-2 14 27 4 19 -6 39 -19 46 -27 11 -14 12 -14 13 1 0 29 39 33 66 7 18 -17 23
-19 19 -7 -5 14 -1 16 22 15 30 -3 52 16 53 46 0 15 -11 17 -94 17 -71 0 -97
4 -106 15 -15 18 -32 19 -48 3z"/>
<path d="M2875 813 c5 -17 2 -23 -9 -23 -9 0 -16 -6 -16 -12 0 -7 -3 -23 -6
-35 -5 -18 -2 -23 12 -23 12 0 15 3 8 8 -9 5 -8 11 2 20 12 11 14 10 14 -4 0
-12 3 -14 13 -6 17 14 208 4 250 -13 10 -4 29 -3 43 4 30 13 45 14 24 1 -11
-7 -2 -10 32 -10 26 0 49 -4 52 -9 4 -5 17 0 30 12 23 20 23 22 7 44 -13 18
-26 22 -71 23 -30 0 -75 5 -100 11 -25 6 -97 11 -160 11 -72 0 -118 5 -123 12
-5 6 -5 1 -2 -11z"/>
<path d="M6820 773 c-6 -79 3 -247 10 -188 3 22 3 87 0 145 -5 95 -6 99 -10
43z"/>
<path d="M3456 765 c-3 -8 -14 -15 -25 -15 -22 0 -35 -25 -22 -47 7 -14 10
-13 20 5 8 15 8 22 -2 25 -7 3 -4 6 6 6 13 1 17 -4 12 -18 -5 -17 4 -19 137
-25 79 -4 176 -9 217 -11 41 -2 80 0 86 5 7 6 21 4 39 -5 15 -8 32 -12 37 -9
5 3 15 2 21 -3 12 -7 123 -12 271 -13 37 0 67 -5 67 -10 0 -6 12 -10 26 -10
14 0 23 4 20 9 -4 5 14 9 39 9 25 -1 45 -4 45 -8 0 -6 66 -13 265 -26 39 -2
77 -7 85 -10 8 -3 64 -9 124 -14 73 -5 111 -12 117 -21 7 -11 9 -10 9 3 0 21
20 12 95 -43 46 -34 58 -37 160 -48 61 -6 126 -14 145 -18 19 -3 114 -7 211
-7 148 -1 180 2 195 15 30 25 75 39 124 38 25 0 100 -1 168 -2 67 -1 122 -5
122 -9 0 -5 5 -8 10 -8 6 0 9 5 8 11 -2 6 3 14 11 17 10 3 12 0 8 -12 -4 -9
-2 -16 2 -16 5 0 11 5 13 10 2 7 14 7 37 -1 25 -9 35 -9 40 0 4 7 37 11 87 10
43 -1 88 0 99 1 11 2 28 0 38 -5 13 -6 17 -2 17 16 1 23 1 23 15 5 15 -20 15
-20 15 0 0 13 11 24 30 31 17 6 30 7 30 2 0 -5 -7 -9 -15 -9 -9 0 -12 -6 -9
-15 5 -13 10 -12 25 6 18 21 26 59 13 59 -3 0 -26 -12 -52 -28 -46 -27 -49
-27 -207 -25 -88 1 -252 11 -365 22 -113 12 -270 26 -350 32 -272 19 -385 28
-495 39 -60 6 -227 18 -370 26 -143 8 -309 19 -370 23 -60 5 -150 12 -200 15
-49 4 -139 11 -200 16 -60 5 -209 17 -330 25 -121 8 -248 17 -282 20 -47 3
-62 1 -67 -10z"/>
<path d="M2288 750 c-7 -24 -3 -38 8 -28 3 4 4 17 2 30 l-3 23 -7 -25z"/>
<path d="M2780 737 c0 -7 9 -13 20 -14 18 -2 18 0 6 13 -18 17 -26 18 -26 1z"/>
<path d="M1715 730 c-3 -5 -1 -10 4 -10 6 0 11 5 11 10 0 6 -2 10 -4 10 -3 0
-8 -4 -11 -10z"/>
<path d="M2460 730 c0 -5 5 -10 10 -10 6 0 10 5 10 10 0 6 -4 10 -10 10 -5 0
-10 -4 -10 -10z"/>
<path d="M3321 708 c-1 -10 -5 -18 -11 -18 -5 0 -10 -5 -10 -12 0 -8 6 -7 16
4 9 9 14 22 11 30 -4 9 -6 7 -6 -4z"/>
<path d="M6560 499 c0 -5 5 -7 10 -4 6 3 10 8 10 11 0 2 -4 4 -10 4 -5 0 -10
-5 -10 -11z"/>
<path d="M9585 361 c-3 -5 -1 -12 5 -16 5 -3 10 1 10 9 0 18 -6 21 -15 7z"/>
<path d="M9572 227 c-6 -7 -9 -23 -5 -36 4 -17 1 -23 -15 -27 -31 -9 -15 -58
21 -62 l27 -3 0 70 c0 70 -7 84 -28 58z"/>
</g>
</svg>
